<?xml version="1.0" standalone="no"?>
<!DOCTYPE svg PUBLIC "-//W3C//DTD SVG 1.1//EN" "http://www.w3.org/Graphics/SVG/1.1/DTD/svg11.dtd" >
<svg xmlns="http://www.w3.org/2000/svg">
<metadata>Generated by IcoMoon</metadata>
<defs>
<font id="DPv8-fonts" horiz-adv-x="1024">
<font-face units-per-em="1024" ascent="960" descent="-64" />
<missing-glyph horiz-adv-x="1024" />
<glyph unicode="&#x20;" horiz-adv-x="512" d="" />
<glyph unicode="&#xe900;" glyph-name="airplay" d="M365.789 64h292.015c36.247 0 54.575 43.655 28.916 69.12l-146.211 145.112c-15.884 15.764-41.542 15.764-57.425 0l-146.211-145.112c-25.251-25.465-7.331-69.12 28.916-69.12zM878.545 832h-733.091c-44.8 0-81.455-36.379-81.455-80.842v-485.053c0-44.463 36.655-80.842 81.455-80.842h122.182c22.4 0 40.727 18.189 40.727 40.421s-18.327 40.421-40.727 40.421h-81.455c-22.4 0-40.727 18.189-40.727 40.421v404.211c0 22.232 18.327 40.421 40.727 40.421h651.636c22.4 0 40.727-18.189 40.727-40.421v-404.211c0-22.232-18.327-40.421-40.727-40.421h-81.455c-22.4 0-40.727-18.189-40.727-40.421s18.327-40.421 40.727-40.421h122.182c44.8 0 81.455 36.379 81.455 80.842v485.053c0 44.463-36.655 80.842-81.455 80.842z" />
<glyph unicode="&#xe901;" glyph-name="article-solid" d="M810.667 832h-597.333c-46.933 0-85.333-38.4-85.333-85.333v-597.333c0-46.933 38.4-85.333 85.333-85.333h597.333c46.933 0 85.333 38.4 85.333 85.333v597.333c0 46.933-38.4 85.333-85.333 85.333zM554.667 234.667h-213.333c-23.467 0-42.667 19.2-42.667 42.667s19.2 42.667 42.667 42.667h213.333c23.467 0 42.667-19.2 42.667-42.667s-19.2-42.667-42.667-42.667zM682.667 405.333h-341.333c-23.467 0-42.667 19.2-42.667 42.667s19.2 42.667 42.667 42.667h341.333c23.467 0 42.667-19.2 42.667-42.667s-19.2-42.667-42.667-42.667zM682.667 576h-341.333c-23.467 0-42.667 19.2-42.667 42.667s19.2 42.667 42.667 42.667h341.333c23.467 0 42.667-19.2 42.667-42.667s-19.2-42.667-42.667-42.667z" />
<glyph unicode="&#xe902;" glyph-name="article" d="M810.667 832h-597.333c-46.933 0-85.333-38.4-85.333-85.333v-597.333c0-46.933 38.4-85.333 85.333-85.333h597.333c46.933 0 85.333 38.4 85.333 85.333v597.333c0 46.933-38.4 85.333-85.333 85.333zM768 746.667c23.467 0 42.667-19.2 42.667-42.667v-512c0-23.467-19.2-42.667-42.667-42.667h-512c-23.467 0-42.667 19.2-42.667 42.667v512c0 23.467 19.2 42.667 42.667 42.667h512zM554.667 320h-213.333c-23.467 0-42.667-19.2-42.667-42.667s19.2-42.667 42.667-42.667v0h213.333c23.467 0 42.667 19.2 42.667 42.667s-19.2 42.667-42.667 42.667v0zM682.667 490.667h-341.333c-23.467 0-42.667-19.2-42.667-42.667s19.2-42.667 42.667-42.667v0h341.333c23.467 0 42.667 19.2 42.667 42.667s-19.2 42.667-42.667 42.667v0zM682.667 661.333h-341.333c-23.467 0-42.667-19.2-42.667-42.667s19.2-42.667 42.667-42.667v0h341.333c23.467 0 42.667 19.2 42.667 42.667s-19.2 42.667-42.667 42.667v0z" />
<glyph unicode="&#xe903;" glyph-name="at-sign" d="M542.72 873.387c-259.84 18.347-474.453-196.267-456.107-456.107 15.36-225.707 212.48-395.947 438.613-395.947h157.44c23.467 0 42.667 19.2 42.667 42.667s-19.2 42.667-42.667 42.667h-156.587c-159.147 0-305.067 103.253-344.747 257.28-63.573 247.467 166.827 478.293 414.293 414.293 154.453-39.253 257.707-185.173 257.707-344.32v-46.933c0-33.707-30.293-66.987-64-66.987s-64 33.28-64 66.987v53.333c0 107.093-75.947 203.52-181.76 218.453-145.067 20.907-267.52-104.533-241.493-250.453 14.507-81.493 78.080-148.907 158.72-168.107 78.507-18.347 153.173 6.827 202.24 56.747 37.973-52.053 113.92-79.36 183.467-51.627 57.173 22.613 92.16 81.067 92.16 142.507v46.507c0 226.56-170.24 423.68-395.947 439.040zM512 320c-70.827 0-128 57.173-128 128s57.173 128 128 128c70.827 0 128-57.173 128-128s-57.173-128-128-128z" />
<glyph unicode="&#xe904;" glyph-name="bell-solid" d="M512 21.333c46.933 0 85.333 38.4 85.333 85.333h-170.667c0-46.933 37.973-85.333 85.333-85.333zM768 277.333v213.333c0 130.987-69.973 240.64-192 269.653v29.013c0 35.413-28.587 64-64 64s-64-28.587-64-64v-29.013c-122.453-29.013-192-138.24-192-269.653v-213.333l-55.040-55.040c-26.88-26.88-8.107-72.96 29.867-72.96h561.92c37.973 0 57.173 46.080 30.293 72.96l-55.040 55.040z" />
<glyph unicode="&#xe905;" glyph-name="bell" d="M823.040 222.293l-55.040 55.040v213.333c0 130.987-69.973 240.64-192 269.653v29.013c0 35.413-28.587 64-64 64s-64-28.587-64-64v-29.013c-122.453-29.013-192-138.24-192-269.653v-213.333l-55.040-55.040c-26.88-26.88-8.107-72.96 29.867-72.96h561.92c38.4 0 57.173 46.080 30.293 72.96zM682.667 234.667h-341.333v256c0 105.813 64.427 192 170.667 192s170.667-86.187 170.667-192v-256zM512 21.333c46.933 0 85.333 38.4 85.333 85.333h-170.667c0-46.933 37.973-85.333 85.333-85.333z" />
<glyph unicode="&#xe906;" glyph-name="calendar-mark" d="M682.667 405.333h-128c-23.467 0-42.667-19.2-42.667-42.667v-128c0-23.467 19.2-42.667 42.667-42.667h128c23.467 0 42.667 19.2 42.667 42.667v128c0 23.467-19.2 42.667-42.667 42.667zM682.667 832v-42.667h-341.333v42.667c0 23.467-19.2 42.667-42.667 42.667s-42.667-19.2-42.667-42.667v-42.667h-42.667c-47.36 0-84.907-38.4-84.907-85.333l-0.427-597.333c0-46.933 37.973-85.333 85.333-85.333h597.333c46.933 0 85.333 38.4 85.333 85.333v597.333c0 46.933-38.4 85.333-85.333 85.333h-42.667v42.667c0 23.467-19.2 42.667-42.667 42.667s-42.667-19.2-42.667-42.667zM768 106.667h-512c-23.467 0-42.667 19.2-42.667 42.667v426.667h597.333v-426.667c0-23.467-19.2-42.667-42.667-42.667z" />
<glyph unicode="&#xe907;" glyph-name="checkmark-solid" d="M512 874.667c-235.52 0-426.667-191.147-426.667-426.667s191.147-426.667 426.667-426.667c235.52 0 426.667 191.147 426.667 426.667s-191.147 426.667-426.667 426.667zM396.373 264.96l-153.173 153.173c-16.64 16.64-16.64 43.52 0 60.16s43.52 16.64 60.16 0l123.307-122.88 293.547 293.547c16.64 16.64 43.52 16.64 60.16 0s16.64-43.52 0-60.16l-323.84-323.84c-16.213-16.64-43.52-16.64-60.16 0z" />
<glyph unicode="&#xe908;" glyph-name="checkmark" d="M512 874.667c-235.52 0-426.667-191.147-426.667-426.667s191.147-426.667 426.667-426.667c235.52 0 426.667 191.147 426.667 426.667s-191.147 426.667-426.667 426.667zM512 106.667c-188.16 0-341.333 153.173-341.333 341.333s153.173 341.333 341.333 341.333c188.16 0 341.333-153.173 341.333-341.333s-153.173-341.333-341.333-341.333zM677.547 606.293l-250.88-250.88-80.213 80.213c-16.64 16.64-43.52 16.64-60.16 0s-16.64-43.52 0-60.16l110.507-110.507c16.64-16.64 43.52-16.64 60.16 0l281.173 281.173c16.64 16.64 16.64 43.52 0 60.16s-43.947 16.64-60.587 0z" />
<glyph unicode="&#xe909;" glyph-name="chevron-left" d="M627.627 673.707c-16.64 16.64-43.52 16.64-60.16 0l-195.84-195.84c-16.64-16.64-16.64-43.52 0-60.16l195.84-195.84c16.64-16.64 43.52-16.64 60.16 0s16.64 43.52 0 60.16l-165.547 165.973 165.547 165.547c16.64 16.64 16.213 43.947 0 60.16z" />
<glyph unicode="&#xe90a;" glyph-name="chevron-right" d="M396.373 673.707c-16.64-16.64-16.64-43.52 0-60.16l165.547-165.547-165.547-165.547c-16.64-16.64-16.64-43.52 0-60.16s43.52-16.64 60.16 0l195.84 195.84c16.64 16.64 16.64 43.52 0 60.16l-195.84 195.84c-16.213 16.213-43.52 16.213-60.16-0.427z" />
<glyph unicode="&#xe90b;" glyph-name="cog-solid" d="M829.013 406.187c1.707 13.653 2.987 27.307 2.987 41.813s-1.28 28.16-2.987 41.813l90.027 70.4c8.107 6.4 10.24 17.92 5.12 27.307l-85.333 147.627c-5.12 9.387-16.64 12.8-26.027 9.387l-106.24-42.667c-22.187 17.067-46.080 31.147-72.107 41.813l-16.213 113.067c-1.28 10.24-10.24 17.92-20.907 17.92h-170.667c-10.667 0-19.627-7.68-20.907-17.92l-16.213-113.067c-26.027-10.667-49.92-25.173-72.107-41.813l-106.24 42.667c-9.813 3.84-20.907 0-26.027-9.387l-85.333-147.627c-5.547-9.387-2.987-20.907 5.12-27.307l90.027-70.4c-1.707-13.653-2.987-27.733-2.987-41.813s1.28-28.16 2.987-41.813l-90.027-70.4c-8.107-6.4-10.24-17.92-5.12-27.307l85.333-147.627c5.12-9.387 16.64-12.8 26.027-9.387l106.24 42.667c22.187-17.067 46.080-31.147 72.107-41.813l16.213-113.067c1.28-10.24 10.24-17.92 20.907-17.92h170.667c10.667 0 19.627 7.68 20.907 17.92l16.213 113.067c26.027 10.667 49.92 25.173 72.107 41.813l106.24-42.667c9.813-3.84 20.907 0 26.027 9.387l85.333 147.627c5.12 9.387 2.987 20.907-5.12 27.307l-90.027 70.4zM512 298.667c-82.347 0-149.333 66.987-149.333 149.333s66.987 149.333 149.333 149.333c82.347 0 149.333-66.987 149.333-149.333s-66.987-149.333-149.333-149.333z" />
<glyph unicode="&#xe90c;" glyph-name="cog" d="M829.013 406.187c1.707 13.653 2.987 27.307 2.987 41.813s-1.28 28.16-2.987 41.813l90.027 70.4c8.107 6.4 10.24 17.92 5.12 27.307l-85.333 147.627c-3.84 6.827-11.093 10.667-18.773 10.667-2.56 0-5.12-0.427-7.253-1.28l-106.24-42.667c-22.187 17.067-46.080 31.147-72.107 41.813l-16.213 113.067c-1.28 10.24-10.24 17.92-20.907 17.92h-170.667c-10.667 0-19.627-7.68-20.907-17.92l-16.213-113.067c-26.027-10.667-49.92-25.173-72.107-41.813l-106.24 42.667c-2.56 0.853-5.12 1.28-7.68 1.28-7.253 0-14.507-3.84-18.347-10.667l-85.333-147.627c-5.547-9.387-2.987-20.907 5.12-27.307l90.027-70.4c-1.707-13.653-2.987-27.733-2.987-41.813s1.28-28.16 2.987-41.813l-90.027-70.4c-8.107-6.4-10.24-17.92-5.12-27.307l85.333-147.627c3.84-6.827 11.093-10.667 18.773-10.667 2.56 0 5.12 0.427 7.253 1.28l106.24 42.667c22.187-17.067 46.080-31.147 72.107-41.813l16.213-113.067c1.28-10.24 10.24-17.92 20.907-17.92h170.667c10.667 0 19.627 7.68 20.907 17.92l16.213 113.067c26.027 10.667 49.92 25.173 72.107 41.813l106.24-42.667c2.56-0.853 5.12-1.28 7.68-1.28 7.253 0 14.507 3.84 18.347 10.667l85.333 147.627c5.12 9.387 2.987 20.907-5.12 27.307l-90.027 70.4zM744.533 479.147c1.707-13.227 2.133-22.187 2.133-31.147s-0.853-18.347-2.133-31.147l-5.973-48.213 37.973-29.867 46.080-35.84-29.867-51.627-54.187 21.76-44.373 17.92-38.4-29.013c-18.347-13.653-35.84-23.893-53.333-31.147l-45.227-18.347-6.827-48.213-8.533-57.6h-59.733l-8.107 57.6-6.827 48.213-45.227 18.347c-18.347 7.68-35.413 17.493-52.48 30.293l-38.827 29.867-45.227-18.347-54.187-21.76-29.867 51.627 46.080 35.84 37.973 29.867-5.973 48.213c-1.28 13.227-2.133 23.040-2.133 31.573s0.853 18.347 2.133 31.147l5.973 48.213-37.973 29.867-46.080 35.84 29.867 51.627 54.187-21.76 44.373-17.92 38.4 29.013c18.347 13.653 35.84 23.893 53.333 31.147l45.227 18.347 6.827 48.213 8.533 57.6h59.307l8.107-57.6 6.827-48.213 45.227-18.347c18.347-7.68 35.413-17.493 52.48-30.293l38.827-29.867 45.227 18.347 54.187 21.76 29.867-51.627-45.653-36.267-37.973-29.867 5.973-48.213zM512 618.667c-94.293 0-170.667-76.373-170.667-170.667s76.373-170.667 170.667-170.667c94.293 0 170.667 76.373 170.667 170.667s-76.373 170.667-170.667 170.667zM512 362.667c-46.933 0-85.333 38.4-85.333 85.333s38.4 85.333 85.333 85.333c46.933 0 85.333-38.4 85.333-85.333s-38.4-85.333-85.333-85.333z" />
<glyph unicode="&#xe90d;" glyph-name="collapse" d="M346.453 136.533c16.64-16.64 43.52-16.64 60.16 0l105.387 105.387 105.387-105.387c16.64-16.64 43.52-16.64 60.16 0s16.64 43.52 0 60.16l-135.253 135.253c-16.64 16.64-43.52 16.64-60.16 0l-135.253-135.253c-17.067-16.213-17.067-43.52-0.427-60.16v0zM677.547 759.467c-16.64 16.64-43.52 16.64-60.16 0l-105.387-105.387-105.387 105.387c-16.64 16.64-43.52 16.64-60.16 0s-16.64-43.947 0-60.587l135.253-135.253c16.64-16.64 43.52-16.64 60.16 0l135.253 135.253c17.067 16.64 17.067 43.947 0.427 60.587v0z" />
<glyph unicode="&#xe90e;" glyph-name="danceplug" d="M874.667 661.333c23.564 0 42.667-19.103 42.667-42.667 0-22.493-17.405-40.921-39.482-42.55l-3.184-0.117h-659.394c-12.258 0-21.908-8.573-23.14-19.059l-0.133-2.274v-213.333c0-10.726 8.832-20.014 20.688-21.205l2.585-0.129h659.394c23.564 0 42.667-19.103 42.667-42.667 0-22.493-17.405-40.921-39.482-42.55l-3.184-0.117h-659.394c-58.13 0-106.025 45.001-108.505 102.018l-0.101 4.649v213.333c0 57.642 46.365 104.16 103.916 106.569l4.69 0.098h659.394zM874.667 486.313c23.564 0 42.667-19.103 42.667-42.667 0-22.493-17.405-40.921-39.482-42.55l-3.184-0.117h-320c-23.564 0-42.667 19.103-42.667 42.667 0 22.493 17.405 40.921 39.482 42.55l3.184 0.117h320z" />
<glyph unicode="&#xe90f;" glyph-name="email-share" d="M853.333 789.333h-682.667c-46.933 0-85.333-38.4-85.333-85.333v-512c0-46.933 38.4-85.333 85.333-85.333h384v85.333h-384v426.667l341.333-213.333 341.333 213.333v-213.333h85.333v298.667c0 46.933-38.4 85.333-85.333 85.333zM512 490.667l-341.333 213.333h682.667l-341.333-213.333zM810.667 320l170.667-170.667-170.667-170.667v128h-170.667v85.333h170.667v128z" />
<glyph unicode="&#xe910;" glyph-name="enveloppe-solid" d="M853.333 789.333h-682.667c-46.933 0-85.333-38.4-85.333-85.333v-512c0-46.933 38.4-85.333 85.333-85.333h682.667c46.933 0 85.333 38.4 85.333 85.333v512c0 46.933-38.4 85.333-85.333 85.333zM836.267 608l-279.040-174.507c-27.733-17.493-62.72-17.493-90.453 0l-279.040 174.507c-10.667 6.827-17.067 18.347-17.067 30.72 0 28.587 31.147 45.653 55.467 30.72l285.867-178.773 285.867 178.773c24.32 14.933 55.467-2.133 55.467-30.72 0-12.373-6.4-23.893-17.067-30.72z" />
<glyph unicode="&#xe911;" glyph-name="enveloppe" d="M853.333 789.333c46.933 0 85.333-38.4 85.333-85.333v0-512c0-46.933-38.4-85.333-85.333-85.333v0h-682.667c-46.933 0-85.333 38.4-85.333 85.333v0 512c0 46.933 38.4 85.333 85.333 85.333v0zM853.333 618.709l-296.107-185.216c-27.733-17.493-62.72-17.493-90.453 0l-296.107 184.896v-426.389h682.667v426.709zM853.099 704.021l-682.432-0.213 341.333-213.141 341.099 213.355z" />
<glyph unicode="&#xe912;" glyph-name="expand" d="M512 711.253l104.96-104.96c16.64-16.64 43.52-16.64 60.16 0s16.64 43.52 0 60.16l-135.253 135.68c-16.64 16.64-43.52 16.64-60.16 0l-135.253-135.68c-16.64-16.64-16.64-43.52 0-60.16s43.52-16.64 60.16 0l105.387 104.96zM512 184.747l-104.96 104.96c-16.64 16.64-43.52 16.64-60.16 0s-16.64-43.52 0-60.16l135.253-135.68c16.64-16.64 43.52-16.64 60.16 0l135.253 135.253c16.64 16.64 16.64 43.52 0 60.16s-43.52 16.64-60.16 0l-105.387-104.533z" />
<glyph unicode="&#xe913;" glyph-name="eye-solid" d="M512 789.333c-213.333 0-395.52-132.693-469.333-320 73.813-187.307 256-320 469.333-320s395.52 132.693 469.333 320c-73.813 187.307-256 320-469.333 320zM512 256c-117.76 0-213.333 95.573-213.333 213.333s95.573 213.333 213.333 213.333c117.76 0 213.333-95.573 213.333-213.333s-95.573-213.333-213.333-213.333zM512 597.333c-70.827 0-128-57.173-128-128s57.173-128 128-128c70.827 0 128 57.173 128 128s-57.173 128-128 128z" />
<glyph unicode="&#xe914;" glyph-name="eye" d="M512 704c161.707 0 305.92-90.88 376.32-234.667-70.4-143.787-214.613-234.667-376.32-234.667s-305.92 90.88-376.32 234.667c70.4 143.787 214.613 234.667 376.32 234.667zM512 789.333c-213.333 0-395.52-132.693-469.333-320 73.813-187.307 256-320 469.333-320s395.52 132.693 469.333 320c-73.813 187.307-256 320-469.333 320zM512 576c58.88 0 106.667-47.787 106.667-106.667s-47.787-106.667-106.667-106.667c-58.88 0-106.667 47.787-106.667 106.667s47.787 106.667 106.667 106.667zM512 661.333c-105.813 0-192-86.187-192-192s86.187-192 192-192c105.813 0 192 86.187 192 192s-86.187 192-192 192z" />
<glyph unicode="&#xe915;" glyph-name="facebook" d="M938.667 445.404c0-106.162-34.408-199.341-103.226-279.54s-154.265-128.375-256.344-144.53v299.445h99.785l18.925 124.625h-118.71v81.352c0 43.85 22.939 65.774 68.817 65.774h53.333v105.585c-32.115 5.77-63.656 8.654-94.624 8.654-33.262 0-61.649-6.347-85.161-19.040s-42.15-31.733-55.914-57.12c-13.763-25.387-20.645-55.389-20.645-90.007v-95.2h-108.387v-124.625h108.387v-299.445c-102.079 16.155-187.526 64.331-256.344 144.53s-103.226 173.378-103.226 279.54c0 118.856 41.577 220.112 124.731 303.773s183.799 125.49 301.935 125.49c118.137 0 218.781-41.83 301.936-125.49s124.731-184.917 124.731-303.773z" />
<glyph unicode="&#xe916;" glyph-name="filter" d="M469.333 192h85.333c23.467 0 42.667 19.2 42.667 42.667s-19.2 42.667-42.667 42.667h-85.333c-23.467 0-42.667-19.2-42.667-42.667s19.2-42.667 42.667-42.667zM128 661.333c0-23.467 19.2-42.667 42.667-42.667h682.667c23.467 0 42.667 19.2 42.667 42.667s-19.2 42.667-42.667 42.667h-682.667c-23.467 0-42.667-19.2-42.667-42.667zM298.667 405.333h426.667c23.467 0 42.667 19.2 42.667 42.667s-19.2 42.667-42.667 42.667h-426.667c-23.467 0-42.667-19.2-42.667-42.667s19.2-42.667 42.667-42.667z" />
<glyph unicode="&#xe917;" glyph-name="group-solid" d="M682.667 490.667c70.827 0 127.573 57.173 127.573 128s-56.747 128-127.573 128c-70.827 0-128-57.173-128-128s57.173-128 128-128zM341.333 490.667c70.827 0 127.573 57.173 127.573 128s-56.747 128-127.573 128c-70.827 0-128-57.173-128-128s57.173-128 128-128zM341.333 405.333c-99.413 0-298.667-49.92-298.667-149.333v-64c0-23.467 19.2-42.667 42.667-42.667h512c23.467 0 42.667 19.2 42.667 42.667v64c0 99.413-199.253 149.333-298.667 149.333zM682.667 405.333c-12.373 0-26.453-0.853-41.387-2.133 0.853-0.427 1.28-1.28 1.707-1.707 48.64-35.413 82.347-82.773 82.347-145.493v-64c0-14.933-2.987-29.44-7.68-42.667h221.013c23.467 0 42.667 19.2 42.667 42.667v64c0 99.413-199.253 149.333-298.667 149.333z" />
<glyph unicode="&#xe918;" glyph-name="hourglass" d="M341.333 874.667c-46.933 0-85.333-38.4-85.333-85.333v-135.253c0-22.613 8.96-44.373 25.173-60.587l145.493-145.493-145.92-145.92c-15.787-16.213-24.747-37.973-24.747-60.587v-134.827c0-46.933 38.4-85.333 85.333-85.333h341.333c46.933 0 85.333 38.4 85.333 85.333v134.827c0 22.613-8.96 44.373-24.747 60.16l-145.92 146.347 145.493 145.067c16.213 16.213 25.173 37.973 25.173 60.587v135.68c0 46.933-38.4 85.333-85.333 85.333h-341.333zM682.667 256v-106.667c0-23.467-19.2-42.667-42.667-42.667h-256c-23.467 0-42.667 19.2-42.667 42.667v106.667l170.667 170.667 170.667-170.667zM512 469.333l-170.667 170.667v106.667c0 23.467 19.2 42.667 42.667 42.667h256c23.467 0 42.667-19.2 42.667-42.667v-106.667l-170.667-170.667z" />
<glyph unicode="&#xe919;" glyph-name="info-solid" d="M512 874.667c-235.52 0-426.667-191.147-426.667-426.667s191.147-426.667 426.667-426.667c235.52 0 426.667 191.147 426.667 426.667s-191.147 426.667-426.667 426.667zM512 213.333c-23.467 0-42.667 19.2-42.667 42.667v213.333c0 23.467 19.2 42.667 42.667 42.667s42.667-19.2 42.667-42.667v-213.333c0-23.467-19.2-42.667-42.667-42.667zM554.667 597.333h-85.333v85.333h85.333v-85.333z" />
<glyph unicode="&#xe91a;" glyph-name="info" d="M511.573 874.667c-235.52 0-426.24-191.147-426.24-426.667s190.72-426.667 426.24-426.667c235.947 0 427.093 191.147 427.093 426.667s-191.147 426.667-427.093 426.667zM512 789.333c188.587 0 341.333-152.747 341.333-341.333s-152.747-341.333-341.333-341.333c-188.587 0-341.333 152.747-341.333 341.333s152.747 341.333 341.333 341.333zM512 512c-23.467 0-42.667-19.2-42.667-42.667v0-213.333c0-23.467 19.2-42.667 42.667-42.667s42.667 19.2 42.667 42.667v0 213.333c0 23.467-19.2 42.667-42.667 42.667zM554.667 682.667h-85.333v-85.333h85.333v85.333z" />
<glyph unicode="&#xe91b;" glyph-name="instagram" d="M371.429 586.857c38.857 38.858 85.714 58.286 140.571 58.286s101.428-19.143 139.714-57.429c38.286-38.286 57.429-84.857 57.429-139.714s-19.143-101.428-57.429-139.714c-38.286-38.286-84.857-57.429-139.714-57.429s-101.428 19.143-139.714 57.429c-38.286 38.286-57.429 84.857-57.429 139.714s18.857 101.143 56.572 138.857zM421.143 357.143c25.143-25.143 55.428-37.715 90.857-37.715s65.714 12.572 90.857 37.715c25.143 25.143 37.714 55.428 37.714 90.857s-12.571 65.714-37.714 90.857c-25.143 25.143-55.428 37.715-90.857 37.715s-65.714-12.572-90.857-37.715c-25.143-25.143-37.714-55.428-37.714-90.857s12.571-65.714 37.714-90.857zM748.572 684.571c9.143-8 13.714-18.286 13.714-30.857s-4.286-23.429-12.857-32.572c-8.572-9.143-19.143-13.714-31.714-13.714s-23.428 4.572-32.571 13.714c-9.143 9.143-13.714 20-13.714 32.572s4.571 23.143 13.714 31.714c9.143 8.572 20 12.857 32.571 12.857s22.857-4.571 30.857-13.714zM894.286 605.714c1.143-30.857 1.714-83.428 1.714-157.714s-0.571-126.857-1.714-157.714c-3.429-69.715-24.285-123.714-62.571-162s-92.286-58.571-162-60.857c-30.857-2.286-83.428-3.429-157.714-3.429s-126.857 1.143-157.714 3.429c-69.715 3.429-123.428 24-161.143 61.714-14.857 13.714-26.857 29.714-36 48s-15.714 36-19.714 53.143c-4 17.143-6 37.143-6 60-2.286 30.857-3.429 83.428-3.429 157.714s1.143 127.428 3.429 159.428c3.429 68.572 24 121.714 61.714 159.429 37.714 38.857 91.428 60 161.143 63.429 30.857 1.143 83.428 1.714 157.714 1.714s126.857-0.571 157.714-1.714c69.715-3.429 123.714-24.286 162-62.572s59.143-92.285 62.571-162zM812 221.714c3.429 9.143 6.286 20.857 8.571 35.143s4 31.428 5.143 51.429c1.143 20 1.714 36.286 1.714 48.857s0 30.286 0 53.143c0 22.857 0 35.714 0 38.571s0 15.428 0 37.714c0 22.286 0 39.714 0 52.286s-0.571 28.857-1.714 48.857c-1.143 20-2.857 37.143-5.143 51.429s-5.143 26-8.571 35.143c-13.714 35.429-38.285 60-73.714 73.714-9.143 3.429-20.857 6.286-35.143 8.571s-31.428 4-51.429 5.143c-20 1.143-36 1.714-48 1.714s-29.714 0-53.143 0c-23.429 0-36.286 0-38.572 0s-14.857 0-37.714 0c-22.857 0-40.571 0-53.143 0s-28.857-0.571-48.857-1.714c-20-1.143-37.143-2.857-51.429-5.143s-26-5.143-35.143-8.571c-35.429-13.715-60-38.286-73.714-73.714-3.429-9.143-6.286-20.857-8.571-35.143s-4-31.429-5.143-51.429c-1.143-20-1.714-36-1.714-48s0-29.714 0-53.143c0-23.429 0-36.286 0-38.571 0-4.571 0-15.143 0-31.714s0-30.286 0-41.143c0-10.857 0.286-24.857 0.857-42s1.429-31.714 2.571-43.714c1.143-12 2.857-24.286 5.143-36.857s4.571-22.857 6.857-30.857c14.857-35.429 39.428-60 73.714-73.714 9.143-3.429 20.857-6.286 35.143-8.571s31.428-4 51.429-5.143c20-1.143 36-1.714 48-1.714s29.714 0 53.143 0c23.429 0 36.286 0 38.571 0 3.429 0 16.286 0 38.572 0s39.714 0 52.286 0c12.572 0 28.857 0.571 48.857 1.714s37.143 2.857 51.429 5.143c14.286 2.286 26 5.143 35.143 8.571 35.429 14.857 60 39.429 73.714 73.714z" />
<glyph unicode="&#xe91c;" glyph-name="key-solid" d="M539.733 533.333c-40.533 114.773-160 192-293.547 165.547-97.707-19.627-177.067-97.707-197.547-195.413-34.987-165.12 90.453-311.467 250.027-311.467 111.36 0 206.080 71.253 241.067 170.667h185.6v-85.333c0-46.933 38.4-85.333 85.333-85.333s85.333 38.4 85.333 85.333v85.333c46.933 0 85.333 38.4 85.333 85.333s-38.4 85.333-85.333 85.333h-356.267zM298.667 362.667c-46.933 0-85.333 38.4-85.333 85.333s38.4 85.333 85.333 85.333c46.933 0 85.333-38.4 85.333-85.333s-38.4-85.333-85.333-85.333z" />
<glyph unicode="&#xe91d;" glyph-name="label-solid" d="M469.333 874.667c23.467 0 44.8-9.387 60.16-24.747v0l384-384c15.36-15.36 25.173-37.12 25.173-60.587s-9.387-44.8-25.173-60.16v0l-298.667-298.667c-15.36-15.787-36.693-25.173-60.16-25.173s-44.8 9.387-60.16 24.747v0l-384 384c-15.787 15.787-25.173 37.12-25.173 60.587v0 298.667c0 46.933 38.4 85.333 85.333 85.333v0zM277.333 746.667c-35.346 0-64-28.654-64-64s28.654-64 64-64c35.346 0 64 28.654 64 64s-28.654 64-64 64z" />
<glyph unicode="&#xe91e;" glyph-name="label" d="M913.493 465.92l-384 384c-15.36 15.36-36.693 24.747-60.16 24.747h-298.667c-46.933 0-85.333-38.4-85.333-85.333v-298.667c0-23.467 9.387-44.8 25.173-60.587l384-384c15.36-15.36 36.693-24.747 60.16-24.747s44.8 9.387 60.16 25.173l298.667 298.667c15.787 15.36 25.173 36.693 25.173 60.16s-9.813 45.227-25.173 60.587zM554.667 106.24l-384 384.427v298.667h298.667v0.427l384-384-298.667-299.52zM341.333 682.667c0-35.346-28.654-64-64-64s-64 28.654-64 64c0 35.346 28.654 64 64 64s64-28.654 64-64z" />
<glyph unicode="&#xe91f;" glyph-name="laptop-solid" d="M853.333 192c46.933 0 85.333 38.4 85.333 85.333v426.667c0 46.933-38.4 85.333-85.333 85.333h-682.667c-46.933 0-85.333-38.4-85.333-85.333v-426.667c0-46.933 38.4-85.333 85.333-85.333h-128c-23.467 0-42.667-19.2-42.667-42.667s19.2-42.667 42.667-42.667h938.667c23.467 0 42.667 19.2 42.667 42.667s-19.2 42.667-42.667 42.667h-128zM213.333 704h597.333c23.467 0 42.667-19.2 42.667-42.667v-341.333c0-23.467-19.2-42.667-42.667-42.667h-597.333c-23.467 0-42.667 19.2-42.667 42.667v341.333c0 23.467 19.2 42.667 42.667 42.667zM277.333 618.667h469.333c11.782 0 21.333-9.551 21.333-21.333v-213.333c0-11.782-9.551-21.333-21.333-21.333h-469.333c-11.782 0-21.333 9.551-21.333 21.333v213.333c0 11.782 9.551 21.333 21.333 21.333z" />
<glyph unicode="&#xe920;" glyph-name="laptop" d="M853.333 192c46.933 0 85.333 38.4 85.333 85.333v426.667c0 46.933-38.4 85.333-85.333 85.333h-682.667c-46.933 0-85.333-38.4-85.333-85.333v-426.667c0-46.933 38.4-85.333 85.333-85.333h-128c-23.467 0-42.667-19.2-42.667-42.667s19.2-42.667 42.667-42.667h938.667c23.467 0 42.667 19.2 42.667 42.667s-19.2 42.667-42.667 42.667h-128zM213.333 704h597.333c23.467 0 42.667-19.2 42.667-42.667v-341.333c0-23.467-19.2-42.667-42.667-42.667h-597.333c-23.467 0-42.667 19.2-42.667 42.667v341.333c0 23.467 19.2 42.667 42.667 42.667z" />
<glyph unicode="&#xe921;" glyph-name="levels-solid" d="M810.667 832h-597.333c-46.933 0-85.333-38.4-85.333-85.333v-597.333c0-46.933 38.4-85.333 85.333-85.333h597.333c46.933 0 85.333 38.4 85.333 85.333v597.333c0 46.933-38.4 85.333-85.333 85.333zM341.333 234.667c-23.467 0-42.667 19.2-42.667 42.667v213.333c0 23.467 19.2 42.667 42.667 42.667s42.667-19.2 42.667-42.667v-213.333c0-23.467-19.2-42.667-42.667-42.667zM512 234.667c-23.467 0-42.667 19.2-42.667 42.667v341.333c0 23.467 19.2 42.667 42.667 42.667s42.667-19.2 42.667-42.667v-341.333c0-23.467-19.2-42.667-42.667-42.667zM682.667 234.667c-23.467 0-42.667 19.2-42.667 42.667v85.333c0 23.467 19.2 42.667 42.667 42.667s42.667-19.2 42.667-42.667v-85.333c0-23.467-19.2-42.667-42.667-42.667z" />
<glyph unicode="&#xe922;" glyph-name="levels" d="M810.667 832c46.933 0 85.333-38.4 85.333-85.333v0-597.333c0-46.933-38.4-85.333-85.333-85.333v0h-597.333c-46.933 0-85.333 38.4-85.333 85.333v0 597.333c0 46.933 38.4 85.333 85.333 85.333v0zM768 746.667h-512c-23.467 0-42.667-19.2-42.667-42.667v0-512c0-23.467 19.2-42.667 42.667-42.667v0h512c23.467 0 42.667 19.2 42.667 42.667v0 512c0 23.467-19.2 42.667-42.667 42.667v0zM341.333 533.333c23.467 0 42.667-19.2 42.667-42.667v-213.333c0-23.467-19.2-42.667-42.667-42.667s-42.667 19.2-42.667 42.667v213.333c0 23.467 19.2 42.667 42.667 42.667zM512 661.333c23.467 0 42.667-19.2 42.667-42.667v-341.333c0-23.467-19.2-42.667-42.667-42.667s-42.667 19.2-42.667 42.667v341.333c0 23.467 19.2 42.667 42.667 42.667zM682.667 405.333c23.467 0 42.667-19.2 42.667-42.667v-85.333c0-23.467-19.2-42.667-42.667-42.667s-42.667 19.2-42.667 42.667v85.333c0 23.467 19.2 42.667 42.667 42.667z" />
<glyph unicode="&#xe923;" glyph-name="linkedin" d="M311.238 85.333h-150.571v484.095h150.571v-484.095zM236.762 635.81c-23.746 0-44.254 8.635-61.524 25.905s-25.905 37.778-25.905 61.524c0 23.746 8.635 44.254 25.905 61.524s37.778 25.905 61.524 25.905c15.111 0 29.413-3.778 42.905-11.333s24.286-18.079 32.381-31.571c8.095-13.492 12.143-28.064 12.143-43.714s-4.048-30.222-12.143-43.714c-8.095-13.492-18.889-24.286-32.381-32.381s-27.794-12.143-42.905-12.143zM874.667 85.333h-150.571v236.381c0 18.349-0.54 33.19-1.619 44.524s-3.778 24.286-8.095 38.857c-4.317 14.572-12.143 25.635-23.476 33.19s-26.174 11.333-44.524 11.333c-35.619 0-59.635-11.333-72.048-34s-18.619-52.889-18.619-90.667v-239.619h-150.572v484.095h145.714v-66.381h1.619c10.794 21.587 28.603 40.206 53.429 55.857s54.508 23.476 89.048 23.476c36.699 0 67.191-5.667 91.476-17s42.635-28.063 55.048-50.19c12.413-22.127 21.048-46.143 25.905-72.048s7.286-56.666 7.286-92.286v-265.524z" />
<glyph unicode="&#xe924;" glyph-name="logout-solid" d="M121.563 789.333h591.721c27.219 0 48.521-13.689 62.722-34.418l198.818-296.071c8.679-13.298 8.679-30.116 0-43.413l-198.818-295.68c-14.201-20.338-35.503-34.418-62.722-34.418h-591.721c-43.393 0-78.896 35.2-78.896 78.222v547.556c0 43.022 35.503 78.222 78.896 78.222zM267.875 267.875c15.385-15.385 40.237-15.385 55.622 0l114.005 114.005 114.005-114.005c15.385-15.385 40.237-15.385 55.622 0s15.385 40.237 0 55.622l-114.005 114.005 114.005 114.005c15.385 15.385 15.385 40.237 0 55.622s-40.237 15.385-55.622 0l-114.005-114.005-114.005 114.005c-15.385 15.385-40.237 15.385-55.622 0s-15.385-40.237 0-55.622l114.005-114.005-114.005-114.005c-14.99-14.99-14.99-40.237 0-55.622z" />
<glyph unicode="&#xe925;" glyph-name="logout" d="M120.885 789.333c-41.634 0-75.943-32.966-78.113-74.084l-0.109-4.138v-547.556c0-41.634 32.966-75.943 74.084-78.113l4.138-0.109h586.667c25.3 0 45.444 12.375 59.464 30.68l2.722 3.738 197.12 295.68c7.943 12.275 8.554 27.549 1.833 40.285l-1.833 3.128-197.12 296.071c-13.2 19.433-32.588 32.679-57.196 34.259l-4.991 0.159h-586.667zM128 704h573.12l177.685-266.816-177.664-266.517h-573.141v533.333zM265.607 269.156c15.253-15.253 39.893-15.253 55.147 0l113.031 113.031 113.031-113.031c15.253-15.253 39.893-15.253 55.147 0s15.253 39.893 0 55.147l-113.031 113.031 113.031 113.031c15.253 15.253 15.253 39.893 0 55.147s-39.893 15.253-55.147 0l-113.031-113.031-113.031 113.031c-15.253 15.253-39.893 15.253-55.147 0s-15.253-39.893 0-55.147l113.031-113.031-113.031-113.031c-14.862-14.862-14.862-39.893 0-55.147z" />
<glyph unicode="&#xe926;" glyph-name="marker-solid" d="M512 874.667c-165.12 0-298.667-133.547-298.667-298.667 0-177.92 188.587-423.253 266.24-516.693 17.067-20.48 48.213-20.48 65.28 0 77.227 93.44 265.813 338.773 265.813 516.693 0 165.12-133.547 298.667-298.667 298.667zM512 469.333c-58.88 0-106.667 47.787-106.667 106.667s47.787 106.667 106.667 106.667c58.88 0 106.667-47.787 106.667-106.667s-47.787-106.667-106.667-106.667z" />
<glyph unicode="&#xe927;" glyph-name="marker" d="M512 874.667c-165.12 0-298.667-133.547-298.667-298.667 0-224 298.667-554.667 298.667-554.667s298.667 330.667 298.667 554.667c0 165.12-133.547 298.667-298.667 298.667zM298.667 576c0 117.76 95.573 213.333 213.333 213.333s213.333-95.573 213.333-213.333c0-122.88-122.88-306.773-213.333-421.547-88.747 113.92-213.333 299.947-213.333 421.547zM618.667 576c0-58.91-47.756-106.667-106.667-106.667s-106.667 47.756-106.667 106.667c0 58.91 47.756 106.667 106.667 106.667s106.667-47.756 106.667-106.667z" />
<glyph unicode="&#xe928;" glyph-name="menu" d="M170.667 192h682.667c23.467 0 42.667 19.2 42.667 42.667s-19.2 42.667-42.667 42.667h-682.667c-23.467 0-42.667-19.2-42.667-42.667s19.2-42.667 42.667-42.667zM170.667 405.333h682.667c23.467 0 42.667 19.2 42.667 42.667s-19.2 42.667-42.667 42.667h-682.667c-23.467 0-42.667-19.2-42.667-42.667s19.2-42.667 42.667-42.667zM128 661.333c0-23.467 19.2-42.667 42.667-42.667h682.667c23.467 0 42.667 19.2 42.667 42.667s-19.2 42.667-42.667 42.667h-682.667c-23.467 0-42.667-19.2-42.667-42.667z" />
<glyph unicode="&#xe929;" glyph-name="money" d="M503.467 494.933c-96.853 25.173-128 51.2-128 91.733 0 46.507 43.093 78.933 115.2 78.933 60.587 0 90.88-23.040 101.973-59.733 5.12-17.067 19.2-29.867 37.12-29.867h12.8c28.16 0 48.213 27.733 38.4 54.187-17.92 50.347-59.733 92.16-126.293 108.373v29.44c0 35.413-28.587 64-64 64s-64-28.587-64-64v-28.16c-82.773-17.92-149.333-71.68-149.333-154.027 0-98.56 81.493-147.627 200.533-176.213 106.667-25.6 128-63.147 128-102.827 0-29.44-20.907-76.373-115.2-76.373-70.4 0-106.667 25.173-120.747 61.013-6.4 16.64-20.907 28.587-38.4 28.587h-11.947c-28.587 0-48.64-29.013-37.973-55.467 24.32-59.307 81.067-94.293 145.067-107.947v-28.587c0-35.413 28.587-64 64-64s64 28.587 64 64v27.733c83.2 15.787 149.333 64 149.333 151.467 0 121.173-103.68 162.56-200.533 187.733z" />
<glyph unicode="&#xe92a;" glyph-name="more-horiz" d="M256 533.333c-46.933 0-85.333-38.4-85.333-85.333s38.4-85.333 85.333-85.333c46.933 0 85.333 38.4 85.333 85.333s-38.4 85.333-85.333 85.333zM768 533.333c-46.933 0-85.333-38.4-85.333-85.333s38.4-85.333 85.333-85.333c46.933 0 85.333 38.4 85.333 85.333s-38.4 85.333-85.333 85.333zM512 533.333c-46.933 0-85.333-38.4-85.333-85.333s38.4-85.333 85.333-85.333c46.933 0 85.333 38.4 85.333 85.333s-38.4 85.333-85.333 85.333z" />
<glyph unicode="&#xe92b;" glyph-name="more-vert" d="M512 618.667c46.933 0 85.333 38.4 85.333 85.333s-38.4 85.333-85.333 85.333c-46.933 0-85.333-38.4-85.333-85.333s38.4-85.333 85.333-85.333zM512 533.333c-46.933 0-85.333-38.4-85.333-85.333s38.4-85.333 85.333-85.333c46.933 0 85.333 38.4 85.333 85.333s-38.4 85.333-85.333 85.333zM512 277.333c-46.933 0-85.333-38.4-85.333-85.333s38.4-85.333 85.333-85.333c46.933 0 85.333 38.4 85.333 85.333s-38.4 85.333-85.333 85.333z" />
<glyph unicode="&#xe92c;" glyph-name="music-note" d="M512 746.667v-364.8c-40.107 23.040-89.6 32-142.080 13.653-57.173-20.48-101.12-71.253-111.36-130.987-19.627-116.907 79.36-216.747 195.84-198.4 83.627 13.227 142.933 90.027 142.933 174.933v420.267h85.333c46.933 0 85.333 38.4 85.333 85.333s-38.4 85.333-85.333 85.333h-85.333c-46.933 0-85.333-38.4-85.333-85.333z" />
<glyph unicode="&#xe92d;" glyph-name="pencil" d="M128 215.040v-129.707c0-11.947 9.387-21.333 21.333-21.333h129.707c5.547 0 11.093 2.133 14.933 6.4l465.92 465.493-160 160-465.493-465.493c-4.267-4.267-6.4-9.387-6.4-15.36zM883.627 659.627c16.64 16.64 16.64 43.52 0 60.16l-99.84 99.84c-16.64 16.64-43.52 16.64-60.16 0l-78.080-78.080 160-160 78.080 78.080z" />
<glyph unicode="&#xe92e;" glyph-name="person-cog-solid" d="M469.333 384c26.098 0 58.154-3.001 92.066-8.992-43.737-44.304-70.733-105.17-70.733-172.341 0-26.045 4.058-51.142 11.577-74.693l-331.577 0.026c-23.467 0-42.667 19.2-42.667 42.667v0 42.667c0 113.493 227.413 170.667 341.333 170.667zM469.333 810.667c94.293 0 170.667-76.373 170.667-170.667s-76.373-170.667-170.667-170.667c-94.293 0-170.667 76.373-170.667 170.667s76.373 170.667 170.667 170.667zM859.71 178.133c0.695 5.689 1.215 11.378 1.215 17.422s-0.521 11.733-1.215 17.422l36.635 29.333c3.299 2.667 4.167 7.467 2.084 11.378l-34.725 61.511c-2.084 3.911-6.771 5.333-10.591 3.911l-43.233-17.778c-9.029 7.111-18.752 12.978-29.343 17.422l-6.598 47.111c-0.521 4.267-4.167 7.467-8.508 7.467h-69.451c-4.341 0-7.987-3.2-8.508-7.467l-6.598-47.111c-10.591-4.444-20.314-10.489-29.343-17.422l-43.233 17.778c-3.993 1.6-8.508 0-10.591-3.911l-34.725-61.511c-2.257-3.911-1.215-8.711 2.084-11.378l36.635-29.333c-0.695-5.689-1.215-11.556-1.215-17.422s0.521-11.733 1.215-17.422l-36.635-29.333c-3.299-2.667-4.167-7.467-2.084-11.378l34.725-61.511c2.084-3.911 6.771-5.333 10.591-3.911l43.233 17.778c9.029-7.111 18.752-12.978 29.343-17.422l6.598-47.111c0.521-4.267 4.167-7.467 8.508-7.467h69.451c4.341 0 7.987 3.2 8.508 7.467l6.598 47.111c10.591 4.444 20.314 10.489 29.343 17.422l43.233-17.778c3.993-1.6 8.508 0 10.591 3.911l34.725 61.511c2.084 3.911 1.215 8.711-2.084 11.378l-36.635 29.333zM730.705 133.333c-33.51 0-60.769 27.911-60.769 62.222s27.259 62.222 60.769 62.222c33.51 0 60.769-27.911 60.769-62.222s-27.259-62.222-60.769-62.222z" />
<glyph unicode="&#xe92f;" glyph-name="person-cog" d="M469.333 426.667c36.648 0 85.043-5.917 133.832-17.723-29-18.695-53.792-43.346-72.665-72.217-20.394 2.926-41.041 4.606-61.167 4.606-115.2 0-247.467-55.040-256-85.76v0-42.24l277.561-0.004c-0.151-3.535-0.228-7.090-0.228-10.662 0-26.045 4.058-51.142 11.577-74.693l-331.577 0.026c-23.467 0-42.667 19.2-42.667 42.667v0 85.333c0 113.493 227.413 170.667 341.333 170.667zM469.333 810.667c94.293 0 170.667-76.373 170.667-170.667s-76.373-170.667-170.667-170.667c-94.293 0-170.667 76.373-170.667 170.667s76.373 170.667 170.667 170.667zM469.333 725.333c-46.933 0-85.333-38.4-85.333-85.333s38.4-85.333 85.333-85.333c46.933 0 85.333 38.4 85.333 85.333s-38.4 85.333-85.333 85.333zM859.71 178.133c0.695 5.689 1.215 11.378 1.215 17.422s-0.521 11.733-1.215 17.422l36.635 29.333c3.299 2.667 4.167 7.467 2.084 11.378l-34.725 61.511c-2.084 3.911-6.771 5.333-10.591 3.911l-43.233-17.778c-9.029 7.111-18.752 12.978-29.343 17.422l-6.598 47.111c-0.521 4.267-4.167 7.467-8.508 7.467h-69.451c-4.341 0-7.987-3.2-8.508-7.467l-6.598-47.111c-10.591-4.444-20.314-10.489-29.343-17.422l-43.233 17.778c-3.993 1.6-8.508 0-10.591-3.911l-34.725-61.511c-2.257-3.911-1.215-8.711 2.084-11.378l36.635-29.333c-0.695-5.689-1.215-11.556-1.215-17.422s0.521-11.733 1.215-17.422l-36.635-29.333c-3.299-2.667-4.167-7.467-2.084-11.378l34.725-61.511c2.084-3.911 6.771-5.333 10.591-3.911l43.233 17.778c9.029-7.111 18.752-12.978 29.343-17.422l6.598-47.111c0.521-4.267 4.167-7.467 8.508-7.467h69.451c4.341 0 7.987 3.2 8.508 7.467l6.598 47.111c10.591 4.444 20.314 10.489 29.343 17.422l43.233-17.778c3.993-1.6 8.508 0 10.591 3.911l34.725 61.511c2.084 3.911 1.215 8.711-2.084 11.378l-36.635 29.333zM730.705 133.333c-33.51 0-60.769 27.911-60.769 62.222s27.259 62.222 60.769 62.222c33.51 0 60.769-27.911 60.769-62.222s-27.259-62.222-60.769-62.222z" />
<glyph unicode="&#xe930;" glyph-name="person-solid" d="M512 448c94.293 0 170.667 76.373 170.667 170.667s-76.373 170.667-170.667 170.667c-94.293 0-170.667-76.373-170.667-170.667s76.373-170.667 170.667-170.667zM512 362.667c-113.92 0-341.333-57.173-341.333-170.667v-42.667c0-23.467 19.2-42.667 42.667-42.667h597.333c23.467 0 42.667 19.2 42.667 42.667v42.667c0 113.493-227.413 170.667-341.333 170.667z" />
<glyph unicode="&#xe931;" glyph-name="person" d="M512 448c94.293 0 170.667 76.373 170.667 170.667s-76.373 170.667-170.667 170.667c-94.293 0-170.667-76.373-170.667-170.667s76.373-170.667 170.667-170.667zM512 704c46.933 0 85.333-38.4 85.333-85.333s-38.4-85.333-85.333-85.333c-46.933 0-85.333 38.4-85.333 85.333s38.4 85.333 85.333 85.333zM512 405.333c-113.92 0-341.333-57.173-341.333-170.667v-85.333c0-23.467 19.2-42.667 42.667-42.667h597.333c23.467 0 42.667 19.2 42.667 42.667v85.333c0 113.493-227.413 170.667-341.333 170.667zM768 192h-512v42.24c8.533 30.72 140.8 85.76 256 85.76s247.467-55.040 256-85.333v-42.667z" />
<glyph unicode="&#xe932;" glyph-name="portrait-solid" d="M512 362.667c64 0 192-32 192-96v0-32h-384v32c0 64 128 96 192 96zM512 629.333c52.907 0 96-43.093 96-96s-43.093-96-96-96c-52.907 0-96 43.093-96 96s43.093 96 96 96zM810.667 832h-597.333c-46.933 0-85.333-38.4-85.333-85.333v-597.333c0-46.933 38.4-85.333 85.333-85.333h597.333c46.933 0 85.333 38.4 85.333 85.333v597.333c0 46.933-38.4 85.333-85.333 85.333z" />
<glyph unicode="&#xe933;" glyph-name="portrait" d="M512 437.333c52.907 0 96 43.093 96 96s-43.093 96-96 96c-52.907 0-96-43.093-96-96s43.093-96 96-96zM704 266.667c0 64-128 96-192 96s-192-32-192-96v-32h384v32zM810.667 832h-597.333c-46.933 0-85.333-38.4-85.333-85.333v-597.333c0-46.933 38.4-85.333 85.333-85.333h597.333c46.933 0 85.333 38.4 85.333 85.333v597.333c0 46.933-38.4 85.333-85.333 85.333zM768 149.333h-512c-23.467 0-42.667 19.2-42.667 42.667v512c0 23.467 19.2 42.667 42.667 42.667h512c23.467 0 42.667-19.2 42.667-42.667v-512c0-23.467-19.2-42.667-42.667-42.667z" />
<glyph unicode="&#xe934;" glyph-name="privacy-info-solid" d="M178.773 769.28c-30.72-13.653-50.773-44.373-50.773-78.080v-200.533c0-236.8 163.84-458.24 384-512 220.16 53.76 384 275.2 384 512v200.533c0 33.707-20.053 64.427-50.773 78.080l-298.667 132.693c-22.187 9.813-47.36 9.813-69.12 0l-298.667-132.693zM512 661.333v0c23.467 0 42.667-19.2 42.667-42.667v0c0-23.467-19.2-42.667-42.667-42.667v0c-23.467 0-42.667 19.2-42.667 42.667v0c0 23.467 19.2 42.667 42.667 42.667zM512 490.667v0c23.467 0 42.667-19.2 42.667-42.667v-170.667c0-23.467-19.2-42.667-42.667-42.667v0c-23.467 0-42.667 19.2-42.667 42.667v170.667c0 23.467 19.2 42.667 42.667 42.667z" />
<glyph unicode="&#xe935;" glyph-name="privacy-info" d="M477.44 901.867c20.206 9.112 43.722 9.763 64.401 1.953l4.719-1.953 298.667-132.693c29.384-13.060 49.009-41.734 50.66-73.702l0.113-4.378v-200.533c0-236.8-163.84-458.24-384-512-217.658 53.149-380.269 270.189-383.937 503.933l-0.063 8.067v200.533c0 32.241 18.347 61.75 46.828 76.204l3.946 1.876 298.667 132.693zM512 823.851l-298.57-132.656-0.097-200.635c0-188.733 124.394-365.31 290.527-420.898l8.14-2.59 0.891 0.25c167.424 52.089 294.26 226.891 297.704 415.377l0.072 7.861v200.533l-298.667 132.757zM512 661.333v0c23.467 0 42.667-19.2 42.667-42.667v0c0-23.467-19.2-42.667-42.667-42.667v0c-23.467 0-42.667 19.2-42.667 42.667v0c0 23.467 19.2 42.667 42.667 42.667zM512 490.667v0c23.467 0 42.667-19.2 42.667-42.667v-170.667c0-23.467-19.2-42.667-42.667-42.667v0c-23.467 0-42.667 19.2-42.667 42.667v170.667c0 23.467 19.2 42.667 42.667 42.667z" />
<glyph unicode="&#xe936;" glyph-name="profile-solid" d="M512 874.667c-235.52 0-426.667-191.147-426.667-426.667s191.147-426.667 426.667-426.667c235.52 0 426.667 191.147 426.667 426.667s-191.147 426.667-426.667 426.667zM512 746.667c70.827 0 128-57.173 128-128s-57.173-128-128-128c-70.827 0-128 57.173-128 128s57.173 128 128 128zM512 140.8c-106.667 0-200.96 54.613-256 137.387 1.28 84.907 170.667 131.413 256 131.413 84.907 0 254.72-46.507 256-131.413-55.040-82.773-149.333-137.387-256-137.387z" />
<glyph unicode="&#xe937;" glyph-name="profile" d="M512 874.667c-235.52 0-426.667-191.147-426.667-426.667s191.147-426.667 426.667-426.667c235.52 0 426.667 191.147 426.667 426.667s-191.147 426.667-426.667 426.667zM301.653 180.053c18.347 38.4 130.133 75.947 210.347 75.947s192.427-37.547 210.347-75.947c-58.027-46.080-130.987-73.387-210.347-73.387s-152.32 27.307-210.347 73.387zM783.36 241.92c-61.013 74.24-209.067 99.413-271.36 99.413s-210.347-25.173-271.36-99.413c-43.52 57.173-69.973 128.427-69.973 206.080 0 188.16 153.173 341.333 341.333 341.333s341.333-153.173 341.333-341.333c0-77.653-26.453-148.907-69.973-206.080v0zM512 704c-82.773 0-149.333-66.56-149.333-149.333s66.56-149.333 149.333-149.333c82.773 0 149.333 66.56 149.333 149.333s-66.56 149.333-149.333 149.333zM512 490.667c-35.413 0-64 28.587-64 64s28.587 64 64 64c35.413 0 64-28.587 64-64s-28.587-64-64-64z" />
<glyph unicode="&#xe938;" glyph-name="question-chat-solid" d="M490.667 874.667c-200.107 0-362.667-162.56-362.667-362.667s162.56-362.667 362.667-362.667h21.333v-128c207.36 99.84 341.333 298.667 341.333 490.667 0 200.107-162.56 362.667-362.667 362.667zM533.333 256h-85.333v85.333h85.333v-85.333zM550.4 459.947c-0.427-0.427-0.853-1.28-1.28-2.133-2.133-3.413-4.267-6.827-5.973-10.24-0.853-1.28-1.28-2.987-1.707-4.693-1.28-2.987-2.56-5.973-3.413-8.96-2.987-8.96-4.267-18.347-4.267-29.013h-85.76c0 21.76 3.413 40.107 8.533 55.467 0 0.427 0 0.853 0.427 1.28 0.427 1.707 1.707 2.56 2.133 4.267 2.56 6.827 5.547 12.8 9.387 18.773 1.28 2.133 2.987 4.267 4.267 6.4 1.28 1.707 2.133 3.84 3.413 5.12l0.427-0.427c35.84 46.933 94.293 61.44 98.987 114.347 3.84 41.813-26.027 82.347-66.987 90.88-44.373 9.387-84.48-16.64-98.133-54.613-5.973-15.36-20.053-27.733-37.547-27.733h-8.533c-25.6 0-44.373 25.173-37.12 49.92 23.467 77.653 101.12 131.84 189.013 119.040 72.107-10.667 129.707-69.973 142.080-142.080 18.773-104.107-69.547-129.28-107.947-185.6v0z" />
<glyph unicode="&#xe939;" glyph-name="question-solid" d="M512 874.667c235.52 0 426.667-191.147 426.667-426.667s-191.147-426.667-426.667-426.667c-235.52 0-426.667 191.147-426.667 426.667s191.147 426.667 426.667 426.667zM554.667 277.333h-85.333v-85.333h85.333v85.333zM349.013 583.253c-7.68-24.747 11.093-49.92 37.12-49.92h8.533c17.493 0 31.573 12.373 37.547 28.587 13.653 37.973 54.187 64 98.133 54.613 40.533-8.533 70.4-48.213 66.987-89.6-4.267-57.173-69.12-69.547-104.533-122.88l-0.427-0.853-1.28-2.133c-3.84-6.4-7.68-13.653-10.667-21.333l-1.707-3.413c-0.427-0.853-0.427-1.707-0.853-2.987-5.12-14.507-8.533-32-8.533-53.333h85.333c0 17.92 4.693 32.853 11.947 45.653l2.133 3.84c3.413 5.973 7.68 11.52 11.947 16.64l1.28 1.707c4.267 5.12 8.96 9.813 14.080 14.507 40.96 38.827 96.427 70.4 84.907 151.893-10.24 74.24-68.693 136.96-142.933 148.053-87.893 12.8-165.547-41.387-189.013-119.040z" />
<glyph unicode="&#xe93a;" glyph-name="question" d="M512 874.667c-235.52 0-426.667-191.147-426.667-426.667s191.147-426.667 426.667-426.667c235.52 0 426.667 191.147 426.667 426.667s-191.147 426.667-426.667 426.667zM512 106.667c-188.16 0-341.333 153.173-341.333 341.333s153.173 341.333 341.333 341.333c188.16 0 341.333-153.173 341.333-341.333s-153.173-341.333-341.333-341.333zM469.333 277.333h85.333v-85.333h-85.333v85.333zM538.027 702.293c-87.893 12.8-165.547-41.387-189.013-119.040-7.68-24.747 11.093-49.92 37.12-49.92h8.533c17.493 0 31.573 12.373 37.547 28.587 13.653 37.973 54.187 64 98.133 54.613 40.533-8.533 70.4-48.213 66.987-89.6-4.267-57.173-69.12-69.547-104.533-122.88 0-0.427-0.427-0.427-0.427-0.853-0.427-0.853-0.853-1.28-1.28-2.133-3.84-6.4-7.68-13.653-10.667-21.333-0.427-1.28-1.28-2.133-1.707-3.413-0.427-0.853-0.427-1.707-0.853-2.987-5.12-14.507-8.533-32-8.533-53.333h85.333c0 17.92 4.693 32.853 11.947 45.653 0.853 1.28 1.28 2.56 2.133 3.84 3.413 5.973 7.68 11.52 11.947 16.64 0.427 0.427 0.853 1.28 1.28 1.707 4.267 5.12 8.96 9.813 14.080 14.507 40.96 38.827 96.427 70.4 84.907 151.893-10.24 74.24-68.693 136.96-142.933 148.053v0z" />
<glyph unicode="&#xe93b;" glyph-name="receipt" d="M268.885 861.551l2.048-1.818 33.707-34.133c7.877-7.877 19.753-8.483 28.245-1.818l2.048 1.818 33.707 34.133c7.877 7.877 19.753 8.483 28.245 1.818l2.048-1.818 34.133-34.133c7.877-7.877 19.753-8.483 28.245-1.818l2.048 1.818 33.707 33.707c7.877 7.877 19.753 8.483 28.245 1.818l2.048-1.818 33.707-33.707c7.877-7.877 19.753-8.483 28.245-1.818l2.048 1.818 33.707 33.707c7.877 7.877 19.753 8.483 28.245 1.818l2.048-1.818 33.707-33.707c7.877-7.877 19.753-8.483 28.245-1.818l2.048 1.818 33.707 33.707c7.877 7.877 19.753 8.483 28.245 1.818l2.048-1.818 33.707-33.707c7.877-7.877 19.753-8.483 28.245-1.818l2.048 1.818 33.707 33.707c3.2 3.556 7.585 5.63 12.168 6.222l2.339 0.178v-835.84c-4.267 0-8.83 1.481-12.701 4.444l-2.232 1.956-33.707 33.707c-7.877 7.877-19.753 8.483-28.245 1.818l-2.048-1.818-33.707-33.707c-7.877-7.877-19.753-8.483-28.245-1.818l-2.048 1.818-33.707 33.707c-7.877 7.877-19.753 8.483-28.245 1.818l-2.048-1.818-33.707-33.707c-7.877-7.877-19.753-8.483-28.245-1.818l-2.048 1.818-33.707 33.707c-7.877 7.877-19.753 8.483-28.245 1.818l-2.048-1.818-33.707-33.707c-7.877-7.877-19.753-8.483-28.245-1.818l-2.048 1.818-33.707 33.707c-7.877 7.877-19.753 8.483-28.245 1.818l-2.048-1.818-33.707-33.707c-7.877-7.877-19.753-8.483-28.245-1.818l-2.048 1.818-33.707 33.707c-7.877 7.877-19.753 8.483-28.245 1.818l-2.048-1.818-33.707-33.707c-7.877-7.877-19.753-8.483-28.245-1.818l-2.048 1.818-33.707 33.707c-7.877 7.877-19.753 8.483-28.245 1.818l-2.048-1.818-33.707-33.707c-3.2-3.556-7.585-5.63-12.168-6.222l-2.765-0.178v835.84c4.622 0 9.244-1.481 12.879-4.198l2.054-1.776 33.707-34.133c7.877-7.877 19.753-8.483 28.245-1.818l2.048 1.818 33.707 34.133c7.877 7.877 19.753 8.483 28.245 1.818zM810.667 746.667h-597.333v-597.333h597.333v597.333zM725.333 320c23.467 0 42.667-19.2 42.667-42.667s-19.2-42.667-42.667-42.667h-426.667c-23.467 0-42.667 19.2-42.667 42.667s19.2 42.667 42.667 42.667h426.667zM725.333 490.667c23.467 0 42.667-19.2 42.667-42.667s-19.2-42.667-42.667-42.667h-426.667c-23.467 0-42.667 19.2-42.667 42.667s19.2 42.667 42.667 42.667h426.667zM725.333 661.333c23.467 0 42.667-19.2 42.667-42.667s-19.2-42.667-42.667-42.667h-426.667c-23.467 0-42.667 19.2-42.667 42.667s19.2 42.667 42.667 42.667h426.667z" />
<glyph unicode="&#xe93c;" glyph-name="shield-admin-solid" d="M725.333 490.667c14.507 0 28.587-1.707 42.667-3.84v149.76c0 34.133-20.053 64.853-51.2 78.080l-234.667 102.4c-21.76 9.387-46.507 9.387-68.267 0l-234.667-102.4c-31.147-13.653-51.2-44.373-51.2-78.080v-153.6c0-193.707 136.533-375.040 320-418.987 23.467 5.547 46.080 13.653 68.267 23.467-29.44 41.813-46.933 92.587-46.933 147.2 0 141.227 114.773 256 256 256zM725.333 405.333c-94.293 0-170.667-76.373-170.667-170.667s76.373-170.667 170.667-170.667c94.293 0 170.667 76.373 170.667 170.667s-76.373 170.667-170.667 170.667zM725.333 346.453c26.453 0 47.787-21.76 47.787-47.787s-21.76-47.787-47.787-47.787c-26.027 0-47.787 21.76-47.787 47.787s21.333 47.787 47.787 47.787zM725.333 117.333c-39.68 0-74.24 19.627-95.573 49.92 2.133 30.72 64.427 46.080 95.573 46.080s93.44-15.36 95.573-46.080c-21.333-30.293-55.893-49.92-95.573-49.92z" />
<glyph unicode="&#xe93d;" glyph-name="shield-admin" d="M472.561 827.609l4.239-1.742 248.889-110.578c24.253-10.779 40.527-34.322 42.173-60.654l0.138-4.413 0.017-163.098c121.067-20.32 213.316-125.616 213.316-252.458 0-141.385-114.615-256-256-256-84.199 0-158.903 40.649-205.56 103.392-22.904-10.904-46.908-19.543-71.773-25.614-181.053 44.211-316.399 224.501-319.929 418.884l-0.071 7.783v167.111c0 26.611 14.998 50.987 38.344 63.154l3.967 1.913 248.889 110.578c16.738 7.549 36.204 8.129 53.361 1.742zM725.333 405.333c-94.293 0-170.667-76.373-170.667-170.667s76.373-170.667 170.667-170.667c94.293 0 170.667 76.373 170.667 170.667s-76.373 170.667-170.667 170.667zM448 738.987l-234.667-102.4v-153.6c0-149.333 99.413-287.573 234.667-330.24 10.667 3.413 20.907 8.107 31.147 12.8-6.4 21.76-9.813 45.227-9.813 69.12 0 126.72 92.16 231.68 213.333 252.16v0 149.76l-234.667 102.4zM773.12 298.667c0-26.392-21.395-47.787-47.787-47.787s-47.787 21.395-47.787 47.787c0 26.392 21.395 47.787 47.787 47.787s47.787-21.395 47.787-47.787zM725.333 213.333c-31.147 0-93.44-15.36-95.573-46.080 21.333-30.293 56.32-49.92 95.573-49.92s74.24 19.627 95.573 49.92c-2.133 30.72-64.427 46.080-95.573 46.080z" />
<glyph unicode="&#xe93e;" glyph-name="speed" d="M830.293 533.333c-8.567-12.66-9.706-28.936-2.987-42.667 10.59-24.715 18.043-50.659 22.187-77.227 10.983-68.699 0.711-139.115-29.44-201.813-7.463-14.017-22.094-22.73-37.973-22.613h-539.733c-15.973-0.033-30.626 8.858-37.973 23.040-55.649 112.89-44.658 247.245 28.599 349.59s196.89 156.072 321.695 139.797c30.992-3.643 61.307-11.688 90.027-23.893 13.73-6.72 30.006-5.58 42.667 2.987 13.206 8.7 20.517 23.991 18.996 39.732s-11.623 29.35-26.25 35.361c-169.048 72.487-365.522 28.48-487.498-109.192s-141.997-338.016-49.675-497.102c15.151-26.244 43.084-42.484 73.387-42.667h590.933c30.608-0.121 58.936 16.16 74.24 42.667 66.807 115.779 75.493 256.176 23.467 379.307-6.621 14.099-20.398 23.47-35.944 24.448s-30.389-6.595-38.723-19.754v0zM451.84 422.827c-21.569-21.569-29.993-53.007-22.098-82.472s30.909-52.478 60.373-60.373c29.464-7.895 60.902 0.529 82.472 22.098l241.493 362.24-362.24-241.493z" />
<glyph unicode="&#xe93f;" glyph-name="star-solid" d="M511.888 199.193l225.823-136.28c16.598-10.046 37.128 4.805 32.76 23.587l-59.841 256.836 199.179 172.534c14.414 12.667 6.989 36.691-12.667 38.438l-262.514 22.277-102.647 241.985c-7.426 17.909-32.76 17.909-40.185 0l-102.647-241.985-262.514-22.277c-19.219-1.747-27.081-25.771-12.23-38.438l199.179-172.534-59.841-256.836c-4.368-18.782 16.161-33.633 32.76-23.587l225.386 136.28z" />
<glyph unicode="&#xe940;" glyph-name="star" d="M491.796 818.569c7.054 17.013 30.271 17.864 38.941 2.552l1.244-2.552 102.647-241.985 262.514-22.277c18.801-1.671 26.412-23.724 14.424-36.724l-1.757-1.714-199.179-172.534 59.841-256.836c4.186-18-14.494-32.389-30.666-24.715l-2.093 1.128-225.823 136.28-225.386-136.28c-15.907-9.628-35.424 3.61-33.178 21.261l0.418 2.326 59.841 256.836-199.179 172.534c-14.205 12.116-7.629 34.623 9.789 38.087l2.441 0.351 262.514 22.277 102.647 241.985zM574.769 493.991l-62.881 148.244-62.881-148.244-160.234-13.589 121.852-105.55-36.568-156.898 137.787 83.3 138.333-83.475-36.59 157.073 121.808 105.528-160.627 13.611z" />
<glyph unicode="&#xe941;" glyph-name="twitter" d="M850.333 613.333c1.111-4.513 1.667-11.846 1.667-22 0-59.795-11.111-119.307-33.333-178.539s-53.611-113.384-94.167-162.462c-40.556-49.077-93.055-88.846-157.5-119.308s-135.555-45.692-213.333-45.692c-97.778 0-187.222 26.513-268.333 79.538 12.222-1.128 26.111-1.692 41.667-1.692 81.112 0 153.889 25.384 218.333 76.154-38.889 0-73.055 11.564-102.5 34.692s-49.722 52.179-60.833 87.154c11.111-1.128 21.667-1.692 31.667-1.692 15.556 0 31.111 1.692 46.667 5.077-26.667 5.641-50.555 16.923-71.667 33.846s-37.778 37.513-50 61.769c-12.222 24.256-18.333 50.487-18.333 78.692v3.385c24.445-14.667 50.555-22.564 78.333-23.692-52.222 36.103-78.333 85.743-78.333 148.923 0 31.59 8.333 61.487 25 89.692 43.334-55.282 96.389-99.282 159.167-132s129.722-50.769 200.833-54.154c-2.222 13.538-3.333 27.077-3.333 40.615 0 48.513 16.944 90.256 50.833 125.231s74.722 52.462 122.5 52.462c51.111 0 93.889-18.615 128.333-55.846 40 7.897 77.222 22 111.667 42.308-13.333-41.744-38.889-74.461-76.667-98.154 33.334 4.513 66.666 14.103 100 28.769-24.445-36.103-53.889-67.128-88.333-93.077z" />
<glyph unicode="&#xe942;" glyph-name="warning-solid" d="M116.48 64h790.613c32.853 0 53.333 35.413 37.12 64l-395.52 682.667c-16.64 28.587-57.6 28.587-73.813 0l-395.52-682.667c-16.213-28.587 4.267-64 37.12-64zM554.667 192h-85.333v85.333h85.333v-85.333zM512 341.333c-23.467 0-42.667 19.2-42.667 42.667v106.667c0 23.467 19.2 42.667 42.667 42.667s42.667-19.2 42.667-42.667v-106.667c0-23.467-19.2-42.667-42.667-42.667z" />
<glyph unicode="&#xe943;" glyph-name="world" d="M511.573 874.667c-235.52 0-426.24-191.147-426.24-426.667s190.72-426.667 426.24-426.667c235.947 0 427.093 191.147 427.093 426.667s-191.147 426.667-427.093 426.667zM807.253 618.667h-125.867c-13.653 53.333-33.28 104.533-58.88 151.893 78.507-26.88 143.787-81.493 184.747-151.893zM512 787.627c35.413-51.2 63.147-107.947 81.493-168.96h-162.987c18.347 61.013 46.080 117.76 81.493 168.96zM181.76 362.667c-6.827 27.307-11.093 55.893-11.093 85.333s4.267 58.027 11.093 85.333h144.213c-3.413-28.16-5.973-56.32-5.973-85.333s2.56-57.173 5.973-85.333h-144.213zM216.747 277.333h125.867c13.653-53.333 33.28-104.533 58.88-151.893-78.507 26.88-143.787 81.067-184.747 151.893v0zM342.613 618.667h-125.867c40.96 70.827 106.24 125.013 184.747 151.893-25.6-47.36-45.227-98.56-58.88-151.893v0zM512 108.373c-35.413 51.2-63.147 107.947-81.493 168.96h162.987c-18.347-61.013-46.080-117.76-81.493-168.96zM611.84 362.667h-199.68c-3.84 28.16-6.827 56.32-6.827 85.333s2.987 57.6 6.827 85.333h199.68c3.84-27.733 6.827-56.32 6.827-85.333s-2.987-57.173-6.827-85.333zM622.507 125.44c25.6 47.36 45.227 98.56 58.88 151.893h125.867c-40.96-70.4-106.24-125.013-184.747-151.893v0zM698.027 362.667c3.413 28.16 5.973 56.32 5.973 85.333s-2.56 57.173-5.973 85.333h144.213c6.827-27.307 11.093-55.893 11.093-85.333s-4.267-58.027-11.093-85.333h-144.213z" />
<glyph unicode="&#xe944;" glyph-name="youtube" d="M962.422 665.253c3.438-13.7 6.59-30.824 9.455-51.374s4.871-40.813 6.017-60.792c1.146-19.979 2.006-38.53 2.579-55.655s0.86-31.395 0.86-42.811v-15.412c0-102.748-6.304-178.666-18.911-227.756-5.731-19.408-16.045-36.532-30.945-51.374s-32.664-25.116-53.294-30.824c-21.776-5.708-63.036-9.989-123.78-12.843s-116.33-4.852-166.76-5.994h-75.643c-195.986 0-318.046 6.279-366.183 18.837-44.699 12.558-72.778 39.957-84.239 82.198-5.731 21.691-10.028 51.659-12.894 89.904s-4.871 70.496-6.017 96.754v41.099c0 101.606 6.304 176.953 18.911 226.044 5.731 20.549 16.046 38.245 30.945 53.086s32.664 25.116 53.294 30.824c21.776 5.708 63.036 9.989 123.78 12.843s116.33 4.852 166.76 5.994h75.644c195.986 0 318.046-6.279 366.183-18.837 20.63-5.708 38.395-15.983 53.294-30.824s25.214-32.537 30.945-53.086zM415.726 298.788l245.841 140.421-245.841 138.709v-279.13z" />
<glyph unicode="&#xe945;" glyph-name="quotation" d="M327.253 234.667c21.76 0 41.813 12.373 51.2 31.573l60.587 121.173c5.973 11.947 8.96 24.747 8.96 37.973v193.28c0 23.467-19.2 42.667-42.667 42.667h-170.667c-23.467 0-42.667-19.2-42.667-42.667v-170.667c0-23.467 19.2-42.667 42.667-42.667h85.333l-43.947-87.893c-19.2-37.973 8.533-82.773 51.2-82.773zM711.253 234.667c21.76 0 41.813 12.373 51.2 31.573l60.587 121.173c5.973 11.947 8.96 24.747 8.96 37.973v193.28c0 23.467-19.2 42.667-42.667 42.667h-170.667c-23.467 0-42.667-19.2-42.667-42.667v-170.667c0-23.467 19.2-42.667 42.667-42.667h85.333l-43.947-87.893c-19.2-37.973 8.533-82.773 51.2-82.773z" />
<glyph unicode="&#xe946;" glyph-name="volume-off" d="M154.88 805.12c-16.64-16.64-16.64-43.52 0-60.16l156.16-156.16-12.373-12.8h-128c-23.467 0-42.667-19.2-42.667-42.667v-170.667c0-23.467 19.2-42.667 42.667-42.667h128l140.373-140.373c26.88-26.88 72.96-7.68 72.96 30.293v177.92l178.347-178.347c-20.907-15.787-43.52-29.013-68.267-38.827-15.36-6.4-24.747-22.613-24.747-39.253 0-30.72 31.147-50.347 59.307-38.827 34.133 14.080 66.133 32.853 94.72 55.893l57.173-57.173c16.64-16.64 43.52-16.64 60.16 0s16.64 43.52 0 60.16l-653.227 653.653c-16.64 16.64-43.52 16.64-60.587 0zM810.667 448c0-34.987-6.4-68.693-17.493-99.84l65.28-65.28c23.893 49.92 37.547 105.813 37.547 165.12 0 163.413-102.4 303.36-246.613 358.4-25.173 9.813-52.053-9.813-52.053-36.693v-8.107c0-16.213 10.667-30.293 26.027-36.267 109.653-44.373 187.307-151.893 187.307-277.333zM439.040 716.373l-7.253-7.253 80.213-80.213v57.6c0 37.973-46.080 56.747-72.96 29.867zM704 448c0 75.52-43.52 140.373-106.667 171.947v-76.373l105.813-105.813c0.427 3.413 0.853 6.827 0.853 10.24z" />
<glyph unicode="&#xe947;" glyph-name="volume-on" d="M128 533.333v-170.667c0-23.467 19.2-42.667 42.667-42.667h128l140.373-140.373c26.88-26.88 72.96-7.68 72.96 30.293v476.587c0 37.973-46.080 57.173-72.96 30.293l-140.373-140.8h-128c-23.467 0-42.667-19.2-42.667-42.667zM704 448c0 75.52-43.52 140.373-106.667 171.947v-343.467c63.147 31.147 106.667 96 106.667 171.52zM597.333 770.133v-8.533c0-16.213 10.667-30.293 25.6-36.267 110.080-43.947 187.733-151.893 187.733-277.333s-77.653-233.387-187.733-277.333c-15.36-5.973-25.6-20.053-25.6-36.267v-8.533c0-26.88 26.88-45.653 51.627-36.267 144.64 55.040 247.040 194.56 247.040 358.4s-102.4 303.36-247.040 358.4c-24.747 9.813-51.627-9.387-51.627-36.267z" />
<glyph unicode="&#xe948;" glyph-name="warning" d="M474.88 810.667c15.634 27.566 54.279 28.55 71.94 2.953l1.874-2.953 395.52-682.667c15.673-27.634-2.942-61.647-33.877-63.884l-3.243-0.116h-790.613c-31.758 0-51.954 33.092-38.62 61.12l1.5 2.88 395.52 682.667zM511.787 704.149l-321.451-554.816h642.88l-321.429 554.816zM554.667 192h-85.333v85.333h85.333zM512 341.333c-23.467 0-42.667 19.2-42.667 42.667v106.667c0 23.467 19.2 42.667 42.667 42.667s42.667-19.2 42.667-42.667v-106.667c0-23.467-19.2-42.667-42.667-42.667z" />
<glyph unicode="&#xe949;" glyph-name="exit" d="M460.373 264.96c16.64-16.64 43.52-16.64 60.16 0l153.173 153.173c16.64 16.64 16.64 43.52 0 60.16l-153.173 153.173c-16.64 16.64-43.52 16.64-60.16 0s-16.64-43.52 0-60.16l80.213-80.64h-369.92c-23.467 0-42.667-19.2-42.667-42.667s19.2-42.667 42.667-42.667h369.92l-80.213-80.213c-16.64-16.64-16.213-43.947 0-60.16zM810.667 832h-597.333c-47.36 0-85.333-38.4-85.333-85.333v-128c0-23.467 19.2-42.667 42.667-42.667s42.667 19.2 42.667 42.667v85.333c0 23.467 19.2 42.667 42.667 42.667h512c23.467 0 42.667-19.2 42.667-42.667v-512c0-23.467-19.2-42.667-42.667-42.667h-512c-23.467 0-42.667 19.2-42.667 42.667v85.333c0 23.467-19.2 42.667-42.667 42.667s-42.667-19.2-42.667-42.667v-128c0-46.933 38.4-85.333 85.333-85.333h597.333c46.933 0 85.333 38.4 85.333 85.333v597.333c0 46.933-38.4 85.333-85.333 85.333z" />
<glyph unicode="&#xe94a;" glyph-name="clear" d="M780.8 716.373c-16.64 16.64-43.52 16.64-60.16 0l-208.64-208.213-208.64 208.64c-16.64 16.64-43.52 16.64-60.16 0s-16.64-43.52 0-60.16l208.64-208.64-208.64-208.64c-16.64-16.64-16.64-43.52 0-60.16s43.52-16.64 60.16 0l208.64 208.64 208.64-208.64c16.64-16.64 43.52-16.64 60.16 0s16.64 43.52 0 60.16l-208.64 208.64 208.64 208.64c16.213 16.213 16.213 43.52 0 59.733z" />
<glyph unicode="&#xe94b;" glyph-name="chevron-down" d="M677.547 563.627l-165.547-165.547-165.547 165.547c-16.64 16.64-43.52 16.64-60.16 0s-16.64-43.52 0-60.16l195.84-195.84c16.64-16.64 43.52-16.64 60.16 0l195.84 195.84c16.64 16.64 16.64 43.52 0 60.16-16.64 16.213-43.947 16.64-60.587 0v0z" />
<glyph unicode="&#xe94c;" glyph-name="chevron-up" d="M481.707 588.373l-195.84-195.84c-16.64-16.64-16.64-43.52 0-60.16s43.52-16.64 60.16 0l165.973 165.547 165.547-165.547c16.64-16.64 43.52-16.64 60.16 0s16.64 43.52 0 60.16l-195.84 195.84c-16.213 16.64-43.52 16.64-60.16 0z" />
<glyph unicode="&#xe94d;" glyph-name="camera-solid" d="M640 405.333c0-70.692-57.308-128-128-128s-128 57.308-128 128c0 70.692 57.308 128 128 128s128-57.308 128-128zM853.333 746.667h-135.253l-52.907 57.6c-15.787 17.493-38.827 27.733-62.72 27.733h-180.907c-23.893 0-46.933-10.24-63.147-27.733l-52.48-57.6h-135.253c-46.933 0-85.333-38.4-85.333-85.333v-512c0-46.933 38.4-85.333 85.333-85.333h682.667c46.933 0 85.333 38.4 85.333 85.333v512c0 46.933-38.4 85.333-85.333 85.333zM512 192c-117.76 0-213.333 95.573-213.333 213.333s95.573 213.333 213.333 213.333c117.76 0 213.333-95.573 213.333-213.333s-95.573-213.333-213.333-213.333z" />
<glyph unicode="&#xe94e;" glyph-name="camera" d="M602.027 832c22.699 0 44.282-8.92 60.241-24.679l3.332-3.481 51.2-57.173h136.533c45.511 0 82.998-36.108 85.228-81.091l0.105-4.242v-512c0-45.511-36.108-82.998-81.091-85.228l-4.242-0.105h-682.667c-45.511 0-82.998 36.108-85.228 81.091l-0.105 4.242v512c0 45.511 36.108 82.998 81.091 85.228l4.242 0.105h136.533l51.2 57.173c15.132 16.725 36.212 26.761 58.728 28.024l4.845 0.136h180.053zM810.667 661.333l-600.505-0.118c-20.9-1.555-37.734-18.34-39.365-39.22l-0.13-3.329v-426.667l0.118-3.172c1.555-20.9 18.34-37.734 39.22-39.365l3.329-0.13h597.333c22.4 0 40.912 17.494 42.549 39.495l0.118 3.172v426.667c0 23.467-19.2 42.667-42.667 42.667zM512 618.667l6.052-0.081c116.569-3.109 207.281-95.811 207.281-213.253s-90.712-210.144-207.281-213.253l-6.052-0.081c-119.467 0-213.333 93.867-213.333 213.333s93.867 213.333 213.333 213.333zM512 541.867c-76.8 0-136.533-59.733-136.533-136.533 0-75.13 57.164-133.928 131.549-136.449l4.984-0.084c76.8 0 136.533 59.733 136.533 136.533s-59.733 136.533-136.533 136.533z" />
<glyph unicode="&#xe94f;" glyph-name="bin-solid" d="M256 149.333c0-46.933 38.4-85.333 85.333-85.333h341.333c46.933 0 85.333 38.4 85.333 85.333v426.667c0 46.933-38.4 85.333-85.333 85.333h-341.333c-46.933 0-85.333-38.4-85.333-85.333v-426.667zM768 789.333h-106.667l-30.293 30.293c-7.68 7.68-18.773 12.373-29.867 12.373h-178.347c-11.093 0-22.187-4.693-29.867-12.373l-30.293-30.293h-106.667c-23.467 0-42.667-19.2-42.667-42.667s19.2-42.667 42.667-42.667h512c23.467 0 42.667 19.2 42.667 42.667s-19.2 42.667-42.667 42.667z" />
<glyph unicode="&#xe950;" glyph-name="bin" d="M256 149.333c0-46.933 38.4-85.333 85.333-85.333h341.333c46.933 0 85.333 38.4 85.333 85.333v426.667c0 46.933-38.4 85.333-85.333 85.333h-341.333c-46.933 0-85.333-38.4-85.333-85.333v-426.667zM384 576h256c23.467 0 42.667-19.2 42.667-42.667v-341.333c0-23.467-19.2-42.667-42.667-42.667h-256c-23.467 0-42.667 19.2-42.667 42.667v341.333c0 23.467 19.2 42.667 42.667 42.667zM661.333 789.333l-30.293 30.293c-7.68 7.68-18.773 12.373-29.867 12.373h-178.347c-11.093 0-22.187-4.693-29.867-12.373l-30.293-30.293h-106.667c-23.467 0-42.667-19.2-42.667-42.667s19.2-42.667 42.667-42.667h512c23.467 0 42.667 19.2 42.667 42.667s-19.2 42.667-42.667 42.667h-106.667z" />
<glyph unicode="&#xe951;" glyph-name="add" d="M768 405.333h-213.333v-213.333c0-23.467-19.2-42.667-42.667-42.667s-42.667 19.2-42.667 42.667v213.333h-213.333c-23.467 0-42.667 19.2-42.667 42.667s19.2 42.667 42.667 42.667h213.333v213.333c0 23.467 19.2 42.667 42.667 42.667s42.667-19.2 42.667-42.667v-213.333h213.333c23.467 0 42.667-19.2 42.667-42.667s-19.2-42.667-42.667-42.667z" />
<glyph unicode="&#xe952;" glyph-name="add-library" d="M128 704c23.467 0 42.667-19.2 42.667-42.667v0-512c0-23.467 19.2-42.667 42.667-42.667v0h512c23.467 0 42.667-19.2 42.667-42.667s-19.2-42.667-42.667-42.667v0h-554.667c-46.933 0-85.333 38.4-85.333 85.333v0 554.667c0 23.467 19.2 42.667 42.667 42.667zM862.815 874.667c41.719 0 75.852-34.133 75.852-75.852v0-530.963c0-41.719-34.133-75.852-75.852-75.852v0h-530.963c-41.719 0-75.852 34.133-75.852 75.852v0 530.963c0 41.719 34.133 75.852 75.852 75.852v0zM824.889 798.815h-455.111c-20.859 0-37.926-17.067-37.926-37.926v0-455.111c0-20.859 17.067-37.926 37.926-37.926v0h455.111c20.859 0 37.926 17.067 37.926 37.926v0 455.111c0 20.859-17.067 37.926-37.926 37.926v0zM768 490.667h-128v-128c0-23.467-19.2-42.667-42.667-42.667s-42.667 19.2-42.667 42.667v128h-128c-23.467 0-42.667 19.2-42.667 42.667s19.2 42.667 42.667 42.667h128v128c0 23.467 19.2 42.667 42.667 42.667s42.667-19.2 42.667-42.667v-128h128c23.467 0 42.667-19.2 42.667-42.667s-19.2-42.667-42.667-42.667z" />
</font>
</defs>
</svg>
