<svg xmlns="http://www.w3.org/2000/svg" width="4100" height="310"><title>Header Wave</title><g fill="none"><g fill="#fff"><path d="M2369.95 90c89.1 0 170.33 7.2 243.73 21.62-26.4-2.6-52.92-3.9-79.68-3.9-48.2 0-97 6.25-146.52 15.72-29.35-3.15-58.73-4.73-88.15-4.73-149.78 0-305.44 60.53-469.73 89.93-63.23-8-127.3-26.24-192.2-54.74 29.6 2.73 57.9 4.1 84.98 4.1 224.82 0 449.62-68 647.57-68z" opacity=".517"/><path fill-opacity=".6" d="M1308.4 76c141.6 40.87 217.97 69.7 331.27 78.88 65 28.32 129.17 46.34 192.5 54.06-53.53 9.73-107.96 16.2-163.4 16.2-165.02 0-290.74-70.9-338.77-94.66-59.3-29.35-304.88-150.25-501.1-34.28-112.55 66.52-217.45 135.35-340.54 166.1-67.3 16.8-147.2 34.05-249.04 42.5-38.95 3.25-117.52 4.98-235.73 5.2H.2l9.33-.06C325.47 305.67 709.08 70.9 811.45 35.8c196.76-67.5 323.7-9.8 496.96 40.2zM2534 107.7c28.15 0 56.03 1.45 83.8 4.34 75.2 15.4 121.6 35.37 152.2 47.97 241.84 99.56 254.96 102.35 602.35 48.63 200.07-30.94 322.14-40.44 499.65 35.82 95.93 41.22 171.93 63.07 227.98 65.55h.02c-41-.14-67.42-.96-79.26-2.48-95.43-12.18-240.36-81.05-338.14-82.4-202.57-2.75-385.25 45.2-552.9 57.47-167.65 12.26-300.27 7.8-359.7-26.6-51.9-30.05-191.4-112.03-383.67-132.34 49.9-9.6 99.1-15.95 147.67-15.95z"/><path d="M2299.33 118.7c30.82 0 61.6 1.74 92.34 5.2-155.1 29.6-317.05 92.1-488.67 92.1-27.14 0-54.43-1.96-81.88-5.88 167.4-28.8 325.85-91.4 478.2-91.4z" opacity=".813"/><path d="M1018.55 45c84.84 0 196.66 24.96 311.45 85.4 114.8 60.46 249.25 97.46 338.76 93.72 59.68-2.5 113.66-7.7 161.95-15.64 15.06 3.1 39.15 4.65 72.3 4.65 49.72 0 161.3-11.14 275.22-40.74 75.96-19.74 145.44-36.08 208.46-49.03 76.1 8.48 152.82 27.56 230.2 57.22 116.05 44.5 130 76.1 229.82 96.5 114.6 23.4 281.97 6.84 455.1-15.8 109.84-14.4 214.22-34.23 338.43-37.18 217.17-5.15 281.8 82.3 409.77 85.26 4.63.2 21.3.4 50 .62H0c693.6.6 730.72-265 1018.55-265z"/></g><g stroke="#FEFEFE"><path d="M366.26 305.85c164 2.42 385.84-136.62 440.82-174 57-38.76 365-150 520.9-77.17 217.45 101.58 496.86 123.75 685.75 71.53 295.56-81.7 503.3-10.34 591.07 26.87 146.28 62.02 162.18 77.54 162.18 77.54 67.1 40.25 179.1 84.25 267.1 78.25 88-6 322.63-151.2 505.18-169.52 164.02-16.46 346 58.52 461.13 167.66" opacity=".2"/><path d="M4006.2 307c-116.97-106.73-298.3-178.56-461.6-163.07-127.7 11.8-276.88 81.02-384.04 125.4-50.1 20.7-92.57 35.54-121.2 36.95-67.63 3.48-147.92-21.38-209.95-49.95-20.56-9.53-39.26-20.07-56.07-29.38-2.6-1.44-20.4-17.57-162-76.74-26.94-11.25-64.53-25.32-111.93-37.44-109.6-28-272.07-43.65-477.6 13.45-39.67 11.03-83.22 19.05-129.32 24.03-174.64 19.32-383.96-9.6-554.64-86.1-50.9-22.8-116.1-28.1-182.58-23.67-139.84 9.33-294.23 64.97-336.4 86.98-72.95 38.08-293.88 174.72-458 178.48" opacity=".25"/><path d="M4012.02 307c-118.83-104.3-299.45-172.6-462.1-158.47-130.53 11.35-279.75 77.66-384.08 120.35-49.3 20.03-91.76 33.9-121.17 34.83-68.8 2.43-149.27-23.15-209.1-51.05-20.37-9.5-39-20.05-55.9-29.37-5.2-2.86-24.9-19.55-161.8-75.94-27.26-11.23-64.8-24.93-111.8-36.84-109.37-27.65-271.06-41.56-476.2 15.7-39.56 11.06-82.9 19.3-128.7 25-175.47 21.9-383.82-4.72-553.46-77.6C1295.84 51.33 1231 45.17 1166 48c-135.6 5.92-290.66 56.38-335.36 75.04-92.1 38.44-310.94 173-475.2 182.94" opacity=".29"/><path d="M4017.84 307c-120.7-101.9-300.64-166.88-462.6-153.87-133.38 10.73-282.62 74.3-384.12 115.28-48.52 19.4-90.96 32.23-121.16 32.74-69.95 1.2-150.56-25-208.22-52.18-20.18-9.5-38.7-20.02-55.7-29.34-7.82-4.28-29.47-21.5-161.64-75.15-27.58-11.2-65.04-24.53-111.64-36.22-109.18-27.3-270.07-39.48-474.8 17.96-39.47 11.1-82.58 19.6-128.12 25.98-176.25 24.72-383.7.2-552.26-69.1-52.86-21.74-117.28-28.77-180.85-27.54-131.36 2.53-287.5 47.13-334.3 63.1-111.95 38.17-328 171.3-492.4 187.4" opacity=".34"/><path d="M4023.66 307c-122.55-99.47-301.82-161.2-463.08-149.27-136.25 10.08-285.42 71.17-384.17 110.2-47.7 18.86-90.15 30.6-121.14 30.64-71.1.1-151.86-26.88-207.35-53.3-19.98-9.52-38.43-20-55.52-29.32-10.42-5.68-34.03-23.4-161.44-74.35-27.9-11.16-65.3-24.14-111.5-35.6-108.97-26.95-269.06-37.4-473.4 20.22-39.37 11.1-82.26 19.9-127.5 26.94-177.07 27.58-383.66 5.2-551.1-60.62-53.85-21.17-117.84-29.07-179.98-29.46-127.1-.82-284.56 37.45-333.26 51.15-132.18 37.17-345.07 169.6-509.58 191.9" opacity=".39"/><path d="M4029.47 307c-124.4-97.05-303-155.54-463.56-144.67-139.1 9.42-288.28 67.85-384.2 105.14-46.92 18.23-89.37 28.96-121.14 28.53-72.27-1-153.16-28.75-206.48-54.4-19.8-9.54-38.16-19.98-55.35-29.3-13.04-7.1-38.6-25.27-161.26-73.57-28.23-11.1-65.54-23.74-111.34-35-108.78-26.58-268.07-35.3-472 22.5-39.28 11.1-81.95 20.2-126.92 27.9-177.84 30.47-383.62 10.3-549.9-52.12-54.85-20.6-118.4-29.35-179.1-31.4-122.8-4.1-281.7 27.5-332.22 39.22-152.65 35.44-362.13 167.9-526.78 196.36" opacity=".44"/><path d="M4035.3 307c-126.26-94.63-304.2-149.9-464.06-140.07-142 8.74-291.16 64.53-384.27 100.07-46.12 17.6-88.55 27.34-121.12 26.43-73.42-2.06-154.44-30.63-205.6-55.53-19.6-9.54-37.9-19.93-55.17-29.28-15.66-8.47-43.2-27.08-161.07-72.76-28.55-11.06-65.8-23.35-111.2-34.38-108.57-26.23-267.05-33.22-470.6 24.74-39.17 11.15-81.6 20.55-126.3 28.9-178.65 33.36-383.64 15.42-548.72-43.65-55.87-20-118.96-29.63-178.26-33.32-118.5-7.38-278.87 17.3-331.16 27.27-173.24 32.97-379.2 166.2-543.97 200.83" opacity=".48"/><path d="M4041.1 307c-128.1-92.2-305.38-144.3-464.53-135.47-144.86 8.04-294.03 61.2-384.32 95-45.33 16.98-87.74 25.73-121.1 24.33-74.57-3.12-155.73-32.52-204.74-56.65-19.4-9.54-37.6-19.9-54.97-29.25-18.3-9.84-47.83-28.85-160.9-71.95-28.88-11.02-66.04-22.96-111.04-33.77-108.38-25.88-266.07-31.14-469.22 27-39.07 11.16-81.3 20.87-125.7 29.86-179.44 36.3-383.68 20.63-547.53-35.16-56.9-19.38-119.5-29.88-177.4-35.25-114.2-10.6-276.05 6.98-330.1 15.3-193.88 29.87-396.26 164.5-561.17 205.32" opacity=".53"/><path d="M4046.92 307c-129.96-89.8-306.58-138.7-465.02-130.87-147.73 7.32-296.9 57.85-384.37 89.94-44.54 16.34-86.93 24.1-121.1 22.22-75.7-4.2-157-34.43-203.85-57.77-19.2-9.57-37.33-19.88-54.8-29.24-20.92-11.22-52.46-30.6-160.7-71.17-29.23-10.96-66.3-22.57-110.9-33.16-108.18-25.52-265.06-29.05-467.83 29.25-38.96 11.2-80.96 21.23-125.1 30.85-180.22 39.27-383.74 25.9-546.33-26.67-57.93-18.73-120.06-30.1-176.53-37.18-109.9-13.76-273.22-3.42-329.08 3.38C686.82 122.73 488 259.4 322.97 306.38" opacity=".58"/><path d="M4052.74 307c-131.82-87.37-307.78-133.15-465.5-126.27-150.62 6.57-299.8 54.5-384.42 84.87-43.76 15.7-86.14 22.5-121.08 20.12-76.88-5.23-158.28-36.33-203-58.88-19-9.58-37.04-19.85-54.6-29.22-23.57-12.56-57.12-32.3-160.52-70.36-29.57-10.9-66.56-22.17-110.77-32.54-107.96-25.18-264.05-26.97-466.42 31.5-38.86 11.23-80.63 21.58-124.48 31.82-181.02 42.28-383.85 31.26-545.16-18.17-58.98-18.07-120.62-30.3-175.68-39.1-105.58-16.9-270.34-13.93-328.02-8.57C678 114.04 482.72 253.3 317.56 306.45" opacity=".62"/><path d="M4058.55 307c-133.66-84.95-308.96-127.6-466-121.67-153.47 5.8-302.66 51.14-384.45 79.8-42.98 15.06-85.33 20.9-121.06 18.02-78.04-6.27-159.56-38.24-202.13-60-18.8-9.6-36.75-19.8-54.42-29.2-26.2-13.9-61.78-33.95-160.33-69.56-29.9-10.82-66.8-21.8-110.6-31.94-107.78-24.82-263.07-24.88-465.04 33.76-38.75 11.25-80.3 21.94-123.87 32.8-181.8 45.3-383.95 36.66-543.98-9.7-60-17.37-121.15-30.46-174.8-41.02-101.27-19.93-267.43-24.48-326.96-20.5-255.67 17.06-447.46 159.38-612.76 218.72" opacity=".67"/><path d="M4064.37 307c-135.52-82.53-310.16-122.1-466.48-117.07-156.36 5.03-305.57 47.76-384.52 74.73-42.2 14.4-84.53 19.3-121.05 15.92-79.2-7.3-160.82-40.17-201.25-61.1-18.6-9.64-36.5-19.8-54.25-29.2-28.85-15.23-66.45-35.57-160.14-68.76-30.27-10.7-67.08-21.38-110.48-31.3-107.56-24.48-262.05-22.8-463.63 36-38.67 11.28-79.98 22.3-123.28 33.77-182.56 48.35-384.08 42.13-542.8-1.2-61.06-16.67-121.7-30.62-173.94-42.96-96.97-22.93-264.5-35.1-325.9-32.45-276.13 11.83-464.52 157.67-629.95 223.2" opacity=".72"/><path d="M4070.18 307c-137.37-80.12-311.35-116.6-466.97-112.47-159.2 4.22-308.43 44.38-384.54 69.66-41.4 13.75-83.72 17.68-121.03 13.8-80.35-8.32-162.1-42.1-200.4-62.22-18.38-9.66-36.2-19.76-54.05-29.15-31.5-16.58-71.14-37.18-159.96-67.98-30.6-10.6-67.32-20.98-110.32-30.7-107.36-24.1-261.05-20.7-462.23 38.27-38.56 11.3-79.64 22.67-122.67 34.75-183.3 51.44-384.2 47.66-541.6 7.3-62.13-15.94-122.28-30.73-173.08-44.9-92.7-25.85-261.53-45.72-324.87-44.4-296.5 6.23-481.57 156-647.13 227.68" opacity=".76"/><path d="M4076 307c-139.23-77.7-312.55-111.1-467.46-107.87-162.1 3.4-311.34 41-384.6 64.6-40.63 13.1-82.92 16.08-121 11.7-81.52-9.34-163.36-44.03-199.53-63.33-18.17-9.7-35.9-19.74-53.87-29.14-34.17-17.9-75.84-38.73-159.77-67.17-30.97-10.5-67.57-20.6-110.18-30.1-107.16-23.76-260.04-18.63-460.83 40.53-38.46 11.32-79.3 23.04-122.07 35.72-184.05 54.55-384.35 53.24-540.42 15.78-63.2-15.17-122.85-30.8-172.2-46.82-88.46-28.7-258.54-56.38-323.83-56.33-316.8.25-498.64 154.28-664.32 232.15" opacity=".81"/><path d="M4081.82 307c-141.08-75.28-313.74-105.64-467.95-103.27-164.97 2.54-314.24 37.58-384.64 59.53-39.86 12.42-82.13 14.55-121 9.6-82.7-10.22-164.6-46-198.65-64.45-17.97-9.73-35.65-19.7-53.7-29.1-36.83-19.2-80.55-40.25-159.6-66.38-31.3-10.36-67.8-20.2-110.02-29.48-106.95-23.4-259.04-16.54-459.43 42.8-38.36 11.34-78.96 23.42-121.46 36.68-184.8 57.7-384.5 58.9-539.25 24.27-64.24-14.38-123.44-30.82-171.34-48.75-84.23-31.53-255.5-67.08-322.77-68.28-337-6.04-515.7 152.57-681.5 236.62" opacity=".86"/><path d="M4087.63 307c-142.93-72.86-314.93-100.48-468.43-98.67-167.84 1.34-317.14 34.16-384.7 54.46-39.08 11.74-81.3 12.93-120.98 7.5-83.85-11.28-165.84-47.96-197.78-65.58-17.75-9.8-35.36-19.67-53.5-29.1-39.5-20.5-85.28-41.72-159.4-65.57-31.7-10.2-68.1-19.8-109.9-28.86-106.75-23.06-258.04-14.47-458.03 45.03-38.25 11.38-78.6 23.82-120.85 37.67-185.5 60.85-384.64 64.6-538.06 32.76-65.32-13.55-124.08-30.8-170.5-50.68-80.05-34.27-252.42-77.77-321.7-80.22-357.13-12.6-532.77 150.87-698.7 241.1" opacity=".91"/><path d="M4093.45 307c-144.8-70.44-316.13-94.9-468.92-94.07-170.7.6-320.08 30.62-384.74 49.4-38.34 11-80.53 11.32-121 5.4-85-12.33-167.06-49.93-196.9-66.7-17.52-9.84-35.1-19.6-53.32-29.07-42.2-21.7-90-43.18-159.22-64.78-32.07-10-68.32-19.4-109.73-28.25-106.55-22.7-257.04-12.37-456.65 47.3-38.15 11.4-78.25 24.26-120.24 38.65-186.15 64.26-384.8 70.33-536.88 41.25-66.38-12.7-124.73-30.76-169.62-52.6-75.95-36.98-249.33-88.5-320.67-92.17-377.15-19.42-549.82 149.16-715.9 245.56" opacity=".95"/><path d="M4099.26 307c-314-145.63-738.18-77.15-854.18-45.15-116 32-276-41-317-64.5-80.95-46.4-166.28-88-321.77-120.67-126.66-26.6-314.8-4.42-574.88 89.17-270.53 97.36-564.33 72.4-704.44-4.8-71.93-39.6-246.22-99.2-319.63-104.1C610.25 30.5 440.47 204.42 274.25 307"/></g></g></svg>