<svg xmlns="http://www.w3.org/2000/svg" width="4100" height="310" viewBox="0 0 4100 310">
  <g fill="#494949" fill-rule="evenodd" transform="rotate(180 2050 156)">
    <path d="M2369.95313,91.0126582 C2459.03798,91.0126582 2540.27938,98.2142518 2613.67733,112.617439 C2587.26713,110.01334 2560.75751,108.710937 2534,108.710937 C2485.7995,108.710937 2436.98989,114.970157 2387.47994,124.440424 C2358.13108,121.287612 2328.74685,119.710937 2299.32686,119.710937 C2149.55142,119.710937 1993.89062,180.231261 1829.60302,209.626449 C1766.37182,201.64082 1702.30673,183.394877 1637.40676,154.886092 C1666.98546,157.629127 1695.31043,159 1722.38281,159 C1947.20313,159 2172,91.0126582 2369.95313,91.0126582 Z" opacity=".517"/>
    <path fill-opacity=".6" d="M4100,-8.73114914e-11 L4100,312 C4059.00498,311.195781 4032.58376,310.037252 4020.73633,308.524414 C3925.30859,296.338926 3780.37697,227.468079 3682.60156,226.13497 C3480.03125,223.373047 3297.34961,271.308594 3129.70117,283.585937 C2962.05273,295.863281 2862.22656,283.585937 2783.47656,244.199219 C2715.0623,209.981909 2578.89787,141.527109 2389.01619,124.147488 C2437.99785,114.841558 2486.29722,108.710938 2534,108.710938 C2613.57173,108.710938 2690.95118,120.228787 2770,143.264485 L2770,46 L1330,46 L1330,79.9882813 L1565,119.012658 C1654.91884,168.565463 1743.26514,198.787549 1830.03891,209.678916 C1775.66312,219.558224 1720.48779,226.13497 1664.5459,226.13497 C1499.53549,226.13497 1378.02725,155.252411 1330,131.483259 C1270.69141,102.130859 1025.11719,-18.7675781 828.90625,97.1992187 C716.349568,163.723736 611.449219,232.550781 488.357422,263.298828 C421.069434,280.107212 341.171523,297.349197 239.324219,305.8125 C199.979095,309.081999 120.204356,311.144499 -3.13775672e-09,312 L-3.13775672e-09,312 L-3.13775672e-09,-8.73114914e-11 L4100,-8.73114914e-11 Z"/>
    <path d="M-3.04316927e-09,1 L4100,1 L4100,313.001173 C3782.3046,313.433973 3391.95058,73.2548363 3288.53516,37.7851562 C3091.78906,-29.6953125 2964.85547,28 2791.58594,78.0039062 C2650.7183,118.656941 2574.9326,146.351392 2462.59224,155.681641 C2436.75209,157.827752 2408.49603,160 2377.61719,160 C2152.79687,160 1928,92.0126582 1730.04687,92.0126582 C1493,92.0126582 1385.52919,139.153249 1330,162.011997 C1088.16406,261.564453 1075.03906,264.345199 727.648438,210.626449 C527.577472,179.688475 405.509766,170.189073 228,246.453125 C132.054096,287.674651 56.0540964,309.857333 -3.04316927e-09,313.001173 L-3.04316927e-09,1 Z" transform="matrix(-1 0 0 1 4100 0)"/>
    <path d="M2299.32686,119.710937 C2328.72714,119.710937 2358.0917,121.285499 2387.42054,124.434623 C2235.20456,153.444724 2079.75543,215.24601 1907.70215,215.24601 C1881.48102,215.24601 1855.02439,213.44835 1828.33227,209.853029 C1993.0882,180.543623 2149.1654,119.710937 2299.32686,119.710937 Z" opacity=".351"/>
  </g>
</svg>
